<svg width="33" height="24" viewBox="0 0 33 24" fill="none" xmlns="http://www.w3.org/2000/svg">
<g clip-path="url(#clip0_90_727)">
<rect width="32" height="24" transform="translate(0.5)" fill="white"/>
<path fill-rule="evenodd" clip-rule="evenodd" d="M0.5 0H32.5V24H0.5V0Z" fill="#F7FCFF"/>
<path fill-rule="evenodd" clip-rule="evenodd" d="M0.5 14.6667V16.6667H32.5V14.6667H0.5Z" fill="#E31D1C"/>
<path fill-rule="evenodd" clip-rule="evenodd" d="M0.5 18.3333V20.3333H32.5V18.3333H0.5Z" fill="#E31D1C"/>
<path fill-rule="evenodd" clip-rule="evenodd" d="M0.5 7.33334V9.33334H32.5V7.33334H0.5Z" fill="#E31D1C"/>
<path fill-rule="evenodd" clip-rule="evenodd" d="M0.5 22V24H32.5V22H0.5Z" fill="#E31D1C"/>
<path fill-rule="evenodd" clip-rule="evenodd" d="M0.5 11V13H32.5V11H0.5Z" fill="#E31D1C"/>
<path fill-rule="evenodd" clip-rule="evenodd" d="M0.5 0V2H32.5V0H0.5Z" fill="#E31D1C"/>
<path fill-rule="evenodd" clip-rule="evenodd" d="M0.5 3.66666V5.66666H32.5V3.66666H0.5Z" fill="#E31D1C"/>
<rect x="0.5" width="20" height="13" fill="#2E42A5"/>
<path fill-rule="evenodd" clip-rule="evenodd" d="M2.22209 2.93867L1.49621 3.44756L1.74127 2.54195L1.09656 1.96803H1.93864L2.22107 1.22897L2.55225 1.96803H3.2701L2.70607 2.54195L2.92443 3.44756L2.22209 2.93867ZM6.22209 2.93867L5.49621 3.44756L5.74127 2.54195L5.09656 1.96803H5.93864L6.22107 1.22897L6.55225 1.96803H7.2701L6.70607 2.54195L6.92443 3.44756L6.22209 2.93867ZM9.49621 3.44756L10.2221 2.93867L10.9244 3.44756L10.7061 2.54195L11.2701 1.96803H10.5522L10.2211 1.22897L9.93864 1.96803H9.09656L9.74127 2.54195L9.49621 3.44756ZM14.2221 2.93867L13.4962 3.44756L13.7413 2.54195L13.0966 1.96803H13.9386L14.2211 1.22897L14.5522 1.96803H15.2701L14.7061 2.54195L14.9244 3.44756L14.2221 2.93867ZM1.49621 7.44756L2.22209 6.93867L2.92443 7.44756L2.70607 6.54194L3.2701 5.96803H2.55225L2.22107 5.22897L1.93864 5.96803H1.09656L1.74127 6.54194L1.49621 7.44756ZM6.22209 6.93867L5.49621 7.44756L5.74127 6.54194L5.09656 5.96803H5.93864L6.22107 5.22897L6.55225 5.96803H7.2701L6.70607 6.54194L6.92443 7.44756L6.22209 6.93867ZM9.49621 7.44756L10.2221 6.93867L10.9244 7.44756L10.7061 6.54194L11.2701 5.96803H10.5522L10.2211 5.22897L9.93864 5.96803H9.09656L9.74127 6.54194L9.49621 7.44756ZM14.2221 6.93867L13.4962 7.44756L13.7413 6.54194L13.0966 5.96803H13.9386L14.2211 5.22897L14.5522 5.96803H15.2701L14.7061 6.54194L14.9244 7.44756L14.2221 6.93867ZM1.49621 11.4476L2.22209 10.9387L2.92443 11.4476L2.70607 10.5419L3.2701 9.96803H2.55225L2.22107 9.22897L1.93864 9.96803H1.09656L1.74127 10.5419L1.49621 11.4476ZM6.22209 10.9387L5.49621 11.4476L5.74127 10.5419L5.09656 9.96803H5.93864L6.22107 9.22897L6.55225 9.96803H7.2701L6.70607 10.5419L6.92443 11.4476L6.22209 10.9387ZM9.49621 11.4476L10.2221 10.9387L10.9244 11.4476L10.7061 10.5419L11.2701 9.96803H10.5522L10.2211 9.22897L9.93864 9.96803H9.09656L9.74127 10.5419L9.49621 11.4476ZM14.2221 10.9387L13.4962 11.4476L13.7413 10.5419L13.0966 9.96803H13.9386L14.2211 9.22897L14.5522 9.96803H15.2701L14.7061 10.5419L14.9244 11.4476L14.2221 10.9387ZM17.4962 3.44756L18.2221 2.93867L18.9244 3.44756L18.7061 2.54195L19.2701 1.96803H18.5522L18.2211 1.22897L17.9386 1.96803H17.0966L17.7413 2.54195L17.4962 3.44756ZM18.2221 6.93867L17.4962 7.44756L17.7413 6.54194L17.0966 5.96803H17.9386L18.2211 5.22897L18.5522 5.96803H19.2701L18.7061 6.54194L18.9244 7.44756L18.2221 6.93867ZM17.4962 11.4476L18.2221 10.9387L18.9244 11.4476L18.7061 10.5419L19.2701 9.96803H18.5522L18.2211 9.22897L17.9386 9.96803H17.0966L17.7413 10.5419L17.4962 11.4476ZM4.22209 4.93867L3.49621 5.44756L3.74127 4.54194L3.09656 3.96803H3.93864L4.22107 3.22897L4.55225 3.96803H5.2701L4.70607 4.54194L4.92443 5.44756L4.22209 4.93867ZM7.49621 5.44756L8.22209 4.93867L8.92443 5.44756L8.70607 4.54194L9.2701 3.96803H8.55225L8.22107 3.22897L7.93864 3.96803H7.09656L7.74127 4.54194L7.49621 5.44756ZM12.2221 4.93867L11.4962 5.44756L11.7413 4.54194L11.0966 3.96803H11.9386L12.2211 3.22897L12.5522 3.96803H13.2701L12.7061 4.54194L12.9244 5.44756L12.2221 4.93867ZM3.49621 9.44756L4.22209 8.93867L4.92443 9.44756L4.70607 8.54194L5.2701 7.96803H4.55225L4.22107 7.22897L3.93864 7.96803H3.09656L3.74127 8.54194L3.49621 9.44756ZM8.22209 8.93867L7.49621 9.44756L7.74127 8.54194L7.09656 7.96803H7.93864L8.22107 7.22897L8.55225 7.96803H9.2701L8.70607 8.54194L8.92443 9.44756L8.22209 8.93867ZM11.4962 9.44756L12.2221 8.93867L12.9244 9.44756L12.7061 8.54194L13.2701 7.96803H12.5522L12.2211 7.22897L11.9386 7.96803H11.0966L11.7413 8.54194L11.4962 9.44756ZM16.2221 4.93867L15.4962 5.44756L15.7413 4.54194L15.0966 3.96803H15.9386L16.2211 3.22897L16.5522 3.96803H17.2701L16.7061 4.54194L16.9244 5.44756L16.2221 4.93867ZM15.4962 9.44756L16.2221 8.93867L16.9244 9.44756L16.7061 8.54194L17.2701 7.96803H16.5522L16.2211 7.22897L15.9386 7.96803H15.0966L15.7413 8.54194L15.4962 9.44756Z" fill="#F7FCFF"/>
</g>
<defs>
<clipPath id="clip0_90_727">
<rect width="32" height="24" fill="white" transform="translate(0.5)"/>
</clipPath>
</defs>
</svg>
