<svg width="33" height="24" viewBox="0 0 33 24" fill="none" xmlns="http://www.w3.org/2000/svg">
<g clip-path="url(#clip0_90_517)">
<rect width="32" height="24" transform="translate(0.5)" fill="white"/>
<path fill-rule="evenodd" clip-rule="evenodd" d="M0.5 0V24H32.5V0H0.5Z" fill="#2E42A5"/>
<g clip-path="url(#clip1_90_517)">
<rect width="18" height="14" transform="translate(0.5)" fill="#2E42A5"/>
<path d="M-1.50427 12.9998L2.45668 14.737L18.5899 1.88874L20.6792 -0.692791L16.4435 -1.27341L9.86317 4.26328L4.56667 7.99371L-1.50427 12.9998Z" fill="#F7FCFF"/>
<path d="M-0.962036 14.2169L1.05589 15.2251L19.9289 -0.932644H17.0955L-0.962036 14.2169Z" fill="#F50100"/>
<path d="M20.5043 12.9998L16.5433 14.737L0.410126 1.88874L-1.67919 -0.692791L2.55648 -1.27341L9.13683 4.26328L14.4333 7.99371L20.5043 12.9998Z" fill="#F7FCFF"/>
<path d="M20.3691 13.8733L18.3512 14.8815L10.3149 7.96351L7.93229 7.19058L-1.8802 -0.68395H0.953194L10.7602 7.00367L13.3651 7.9305L20.3691 13.8733Z" fill="#F50100"/>
<path fill-rule="evenodd" clip-rule="evenodd" d="M10.4845 0H8.48451V6H0.5V8H8.48451V14H10.4845V8H18.5V6H10.4845V0Z" fill="#F50100"/>
<path fill-rule="evenodd" clip-rule="evenodd" d="M6.98451 0H11.9845V4.5H18.5V9.5H11.9845L12 14H7L6.98451 9.5H0.5V4.5H6.98451V0ZM8.48451 6H0.5V8H8.48451V14H10.4845V8H18.5V6H10.4845V0H8.48451V6Z" fill="#F7FCFF"/>
</g>
<g clip-path="url(#clip2_90_517)">
<path d="M9.5 20.5L8.19835 21.7029L8.32725 19.9352L6.57522 19.6676L8.03761 18.6662L7.15451 17.1295L8.84917 17.6485L9.5 16L10.1508 17.6485L11.8455 17.1295L10.9624 18.6662L12.4248 19.6676L10.6727 19.9352L10.8017 21.7029L9.5 20.5Z" fill="#F7FCFF"/>
<path d="M22.5 13L21.6322 13.8019L21.7182 12.6235L20.5501 12.445L21.5251 11.7775L20.9363 10.753L22.0661 11.099L22.5 10L22.9339 11.099L24.0637 10.753L23.4749 11.7775L24.4499 12.445L23.2818 12.6235L23.3678 13.8019L22.5 13Z" fill="#F7FCFF"/>
<path d="M24.5 5L23.6322 5.80194L23.7182 4.62349L22.5501 4.44504L23.5251 3.77748L22.9363 2.75302L24.0661 3.09903L24.5 2L24.9339 3.09903L26.0637 2.75302L25.4749 3.77748L26.4499 4.44504L25.2818 4.62349L25.3678 5.80194L24.5 5Z" fill="#F7FCFF"/>
<path d="M29.5 9L28.6322 9.80194L28.7182 8.62349L27.5501 8.44504L28.5251 7.77748L27.9363 6.75302L29.0661 7.09903L29.5 6L29.9339 7.09903L31.0637 6.75302L30.4749 7.77748L31.4499 8.44504L30.2818 8.62349L30.3678 9.80194L29.5 9Z" fill="#F7FCFF"/>
<path d="M25.5 22L24.6322 22.8019L24.7182 21.6235L23.5501 21.445L24.5251 20.7775L23.9363 19.753L25.0661 20.099L25.5 19L25.9339 20.099L27.0637 19.753L26.4749 20.7775L27.4499 21.445L26.2818 21.6235L26.3678 22.8019L25.5 22Z" fill="#F7FCFF"/>
<path d="M29 14.25L28.1183 14.7135L28.2867 13.7318L27.5734 13.0365L28.5592 12.8932L29 12L29.4408 12.8932L30.4266 13.0365L29.7133 13.7318L29.8817 14.7135L29 14.25Z" fill="#F7FCFF"/>
</g>
</g>
<defs>
<clipPath id="clip0_90_517">
<rect width="32" height="24" fill="white" transform="translate(0.5)"/>
</clipPath>
<clipPath id="clip1_90_517">
<rect width="18" height="14" fill="white" transform="translate(0.5)"/>
</clipPath>
<clipPath id="clip2_90_517">
<rect width="25" height="21" fill="white" transform="translate(6.5 2)"/>
</clipPath>
</defs>
</svg>
