<svg width="33" height="24" viewBox="0 0 33 24" fill="none" xmlns="http://www.w3.org/2000/svg">
<g clip-path="url(#clip0_90_837)">
<rect width="32" height="24" transform="translate(0.5)" fill="white"/>
<path fill-rule="evenodd" clip-rule="evenodd" d="M0.5 0V24H32.5V0H0.5Z" fill="#009933"/>
<mask id="mask0_90_837" style="mask-type:luminance" maskUnits="userSpaceOnUse" x="0" y="0" width="33" height="24">
<path fill-rule="evenodd" clip-rule="evenodd" d="M0.5 0V24H32.5V0H0.5Z" fill="white"/>
</mask>
<g mask="url(#mask0_90_837)">
<g filter="url(#filter0_d_90_837)">
<path fill-rule="evenodd" clip-rule="evenodd" d="M16.4268 3.70404L28.6286 12.2075L16.2608 20.1713L4.30893 12.0427L16.4268 3.70404Z" fill="#FFD221"/>
<path fill-rule="evenodd" clip-rule="evenodd" d="M16.4268 3.70404L28.6286 12.2075L16.2608 20.1713L4.30893 12.0427L16.4268 3.70404Z" fill="url(#paint0_linear_90_837)"/>
</g>
<path fill-rule="evenodd" clip-rule="evenodd" d="M16.5 17.2C19.2614 17.2 21.5 14.9614 21.5 12.2C21.5 9.43859 19.2614 7.20001 16.5 7.20001C13.7386 7.20001 11.5 9.43859 11.5 12.2C11.5 14.9614 13.7386 17.2 16.5 17.2Z" fill="#2E42A5"/>
<mask id="mask1_90_837" style="mask-type:luminance" maskUnits="userSpaceOnUse" x="11" y="7" width="11" height="11">
<path fill-rule="evenodd" clip-rule="evenodd" d="M16.5 17.2C19.2614 17.2 21.5 14.9614 21.5 12.2C21.5 9.43859 19.2614 7.20001 16.5 7.20001C13.7386 7.20001 11.5 9.43859 11.5 12.2C11.5 14.9614 13.7386 17.2 16.5 17.2Z" fill="white"/>
</mask>
<g mask="url(#mask1_90_837)">
<path fill-rule="evenodd" clip-rule="evenodd" d="M14.88 14.57L14.6566 14.6874L14.6993 14.4387L14.5186 14.2626L14.7683 14.2263L14.88 14L14.9917 14.2263L15.2414 14.2626L15.0607 14.4387L15.1034 14.6874L14.88 14.57Z" fill="#F7FCFF"/>
<path fill-rule="evenodd" clip-rule="evenodd" d="M16.88 14.57L16.6566 14.6874L16.6993 14.4387L16.5186 14.2626L16.7683 14.2263L16.88 14L16.9917 14.2263L17.2414 14.2626L17.0607 14.4387L17.1034 14.6874L16.88 14.57Z" fill="#F7FCFF"/>
<path fill-rule="evenodd" clip-rule="evenodd" d="M16.88 15.77L16.6566 15.8874L16.6993 15.6387L16.5186 15.4626L16.7683 15.4263L16.88 15.2L16.9917 15.4263L17.2414 15.4626L17.0607 15.6387L17.1034 15.8874L16.88 15.77Z" fill="#F7FCFF"/>
<path fill-rule="evenodd" clip-rule="evenodd" d="M15.88 11.57L15.6566 11.6874L15.6993 11.4387L15.5186 11.2626L15.7683 11.2263L15.88 11L15.9917 11.2263L16.2414 11.2626L16.0607 11.4387L16.1034 11.6874L15.88 11.57Z" fill="#F7FCFF"/>
<path fill-rule="evenodd" clip-rule="evenodd" d="M15.88 13.57L15.6566 13.6874L15.6993 13.4387L15.5186 13.2626L15.7683 13.2263L15.88 13L15.9917 13.2263L16.2414 13.2626L16.0607 13.4387L16.1034 13.6874L15.88 13.57Z" fill="#F7FCFF"/>
<path fill-rule="evenodd" clip-rule="evenodd" d="M14.48 12.57L14.2566 12.6874L14.2993 12.4387L14.1186 12.2626L14.3683 12.2263L14.48 12L14.5917 12.2263L14.8414 12.2626L14.6607 12.4387L14.7033 12.6874L14.48 12.57Z" fill="#F7FCFF"/>
<path fill-rule="evenodd" clip-rule="evenodd" d="M13.08 13.37L12.8566 13.4874L12.8993 13.2387L12.7185 13.0626L12.9683 13.0263L13.08 12.8L13.1916 13.0263L13.4414 13.0626L13.2607 13.2387L13.3033 13.4874L13.08 13.37Z" fill="#F7FCFF"/>
<path fill-rule="evenodd" clip-rule="evenodd" d="M17.68 9.96999L17.4567 10.0874L17.4993 9.83871L17.3186 9.66257L17.5684 9.62628L17.68 9.39999L17.7917 9.62628L18.0415 9.66257L17.8607 9.83871L17.9034 10.0874L17.68 9.96999Z" fill="#F7FCFF"/>
<path d="M10.4248 10.9972L10.5752 9.00284C15.3731 9.36462 19.16 10.9422 21.8882 13.7484L20.4542 15.1426C18.0896 12.7103 14.7624 11.3242 10.4248 10.9972Z" fill="#F7FCFF"/>
<path d="M12.7894 10.6028L12.8409 10.1054C15.9339 10.4258 18.5868 11.6105 20.7917 13.6569L20.4516 14.0234C18.3269 12.0514 15.7755 10.9121 12.7894 10.6028Z" fill="#009933"/>
</g>
</g>
</g>
<defs>
<filter id="filter0_d_90_837" x="4.30896" y="3.70404" width="24.3197" height="16.4672" filterUnits="userSpaceOnUse" color-interpolation-filters="sRGB">
<feFlood flood-opacity="0" result="BackgroundImageFix"/>
<feColorMatrix in="SourceAlpha" type="matrix" values="0 0 0 0 0 0 0 0 0 0 0 0 0 0 0 0 0 0 127 0" result="hardAlpha"/>
<feOffset/>
<feColorMatrix type="matrix" values="0 0 0 0 0.0313726 0 0 0 0 0.368627 0 0 0 0 0 0 0 0 0.28 0"/>
<feBlend mode="normal" in2="BackgroundImageFix" result="effect1_dropShadow_90_837"/>
<feBlend mode="normal" in="SourceGraphic" in2="effect1_dropShadow_90_837" result="shape"/>
</filter>
<linearGradient id="paint0_linear_90_837" x1="32.5" y1="24" x2="32.5" y2="0" gradientUnits="userSpaceOnUse">
<stop stop-color="#FFC600"/>
<stop offset="1" stop-color="#FFDE42"/>
</linearGradient>
<clipPath id="clip0_90_837">
<rect width="32" height="24" fill="white" transform="translate(0.5)"/>
</clipPath>
</defs>
</svg>
