<svg width="33" height="24" viewBox="0 0 33 24" fill="none" xmlns="http://www.w3.org/2000/svg">
<g clip-path="url(#clip0_90_337)">
<rect width="32" height="24" transform="translate(0.5)" fill="white"/>
<path fill-rule="evenodd" clip-rule="evenodd" d="M0.5 0V24H32.5V0H0.5Z" fill="#2E42A5"/>
<mask id="mask0_90_337" style="mask-type:luminance" maskUnits="userSpaceOnUse" x="0" y="0" width="33" height="24">
<path fill-rule="evenodd" clip-rule="evenodd" d="M0.5 0V24H32.5V0H0.5Z" fill="white"/>
</mask>
<g mask="url(#mask0_90_337)">
<path d="M-3.06323 22.2854L3.97846 25.2635L32.6597 3.23785L36.374 -1.18764L28.844 -2.18299L17.1456 7.30848L7.72956 13.7035L-3.06323 22.2854Z" fill="white"/>
<path d="M-2.09924 24.3719L1.48817 26.1001L35.0402 -1.59882H30.0031L-2.09924 24.3719Z" fill="#F50100"/>
<path d="M36.0631 22.2854L29.0214 25.2635L0.340183 3.23785L-3.37415 -1.18764L4.15593 -2.18299L15.8543 7.30848L25.2703 13.7035L36.0631 22.2854Z" fill="white"/>
<path d="M35.8229 23.7829L32.2355 25.5111L17.9487 13.6517L13.7129 12.3267L-3.73151 -1.17248H1.30564L18.7403 12.0063L23.3713 13.5951L35.8229 23.7829Z" fill="#F50100"/>
<mask id="path-7-inside-1_90_337" fill="white">
<path fill-rule="evenodd" clip-rule="evenodd" d="M20.2777 -2H12.7222V8H-1.47253V16H12.7222V26H20.2777V16H34.5275V8H20.2777V-2Z"/>
</mask>
<path fill-rule="evenodd" clip-rule="evenodd" d="M20.2777 -2H12.7222V8H-1.47253V16H12.7222V26H20.2777V16H34.5275V8H20.2777V-2Z" fill="#F50100"/>
<path d="M12.7222 -2V-4H10.7222V-2H12.7222ZM20.2777 -2H22.2777V-4H20.2777V-2ZM12.7222 8V10H14.7222V8H12.7222ZM-1.47253 8V6H-3.47253V8H-1.47253ZM-1.47253 16H-3.47253V18H-1.47253V16ZM12.7222 16H14.7222V14H12.7222V16ZM12.7222 26H10.7222V28H12.7222V26ZM20.2777 26V28H22.2777V26H20.2777ZM20.2777 16V14H18.2777V16H20.2777ZM34.5275 16V18H36.5275V16H34.5275ZM34.5275 8H36.5275V6H34.5275V8ZM20.2777 8H18.2777V10H20.2777V8ZM12.7222 0H20.2777V-4H12.7222V0ZM14.7222 8V-2H10.7222V8H14.7222ZM-1.47253 10H12.7222V6H-1.47253V10ZM0.527466 16V8H-3.47253V16H0.527466ZM12.7222 14H-1.47253V18H12.7222V14ZM14.7222 26V16H10.7222V26H14.7222ZM20.2777 24H12.7222V28H20.2777V24ZM18.2777 16V26H22.2777V16H18.2777ZM34.5275 14H20.2777V18H34.5275V14ZM32.5275 8V16H36.5275V8H32.5275ZM20.2777 10H34.5275V6H20.2777V10ZM18.2777 -2V8H22.2777V-2H18.2777Z" fill="white" mask="url(#path-7-inside-1_90_337)"/>
</g>
</g>
<defs>
<clipPath id="clip0_90_337">
<rect width="32" height="24" fill="white" transform="translate(0.5)"/>
</clipPath>
</defs>
</svg>
