<svg width="33" height="24" viewBox="0 0 33 24" fill="none" xmlns="http://www.w3.org/2000/svg">
<g clip-path="url(#clip0_90_745)">
<rect width="32" height="24" transform="translate(0.5)" fill="white"/>
<path fill-rule="evenodd" clip-rule="evenodd" d="M8.5 0H24.5V24H8.5V0Z" fill="#F7FCFF"/>
<path fill-rule="evenodd" clip-rule="evenodd" d="M16.4764 7L16.5 19H15.9005L16.2683 16.0303C13.5782 16.5144 12.3443 16.6343 12.5667 16.3902C12.7891 16.146 12.9644 15.8 13.0925 15.3521L9.5 12.9553C9.87779 12.9506 10.2204 12.8568 10.5277 12.674C10.835 12.4912 10.6814 11.8578 10.0667 10.7737L11.8805 11.0376L12.5667 10.2918L13.9352 11.7241H14.5503L13.9352 8.44343L15.0378 9.05932L16.4764 7ZM16.4764 7L17.9622 9.05932L19.0648 8.44343L18.4497 11.7241H19.0648L20.4333 10.2918L21.1195 11.0376L22.9333 10.7737C22.3186 11.8578 22.165 12.4912 22.4723 12.674C22.7796 12.8568 23.1222 12.9506 23.5 12.9553L19.9075 15.3521C20.0356 15.8 20.2109 16.146 20.4333 16.3902C20.6557 16.6343 19.4218 16.5144 16.7317 16.0303L17.0995 19H16.5L16.4764 7Z" fill="#E31D1C"/>
<path fill-rule="evenodd" clip-rule="evenodd" d="M24.5 0H32.5V24H24.5V0Z" fill="#E31D1C"/>
<path fill-rule="evenodd" clip-rule="evenodd" d="M0.5 0H8.5V24H0.5V0Z" fill="#E31D1C"/>
</g>
<defs>
<clipPath id="clip0_90_745">
<rect width="32" height="24" fill="white" transform="translate(0.5)"/>
</clipPath>
</defs>
</svg>
