<svg width="33" height="24" viewBox="0 0 33 24" fill="none" xmlns="http://www.w3.org/2000/svg">
<g clip-path="url(#clip0_90_653)">
<rect width="32" height="24" transform="translate(0.5)" fill="white"/>
<path fill-rule="evenodd" clip-rule="evenodd" d="M22.5 0H32.5V24H22.5V0Z" fill="#D9071E"/>
<path fill-rule="evenodd" clip-rule="evenodd" d="M0.5 0H12.5V24H0.5V0Z" fill="#006923"/>
<path fill-rule="evenodd" clip-rule="evenodd" d="M10.5 0H22.5V24H10.5V0Z" fill="white"/>
<path fill-rule="evenodd" clip-rule="evenodd" d="M13.5555 8.34178C13.4492 8.79694 13.5184 8.90438 14.0323 8.90438C14.059 8.90438 14.1014 8.97981 14.1474 9.06188C14.1979 9.15189 14.253 9.24988 14.2967 9.26502C14.278 9.28985 14.0826 9.643 14.0816 10.265C14.0815 10.3931 14.141 10.6042 14.1983 10.8069C14.2605 11.0274 14.32 11.2381 14.2967 11.3213C14.2588 11.4568 14.0889 11.3092 13.9573 11.1947C13.882 11.1293 13.8193 11.0747 13.8008 11.0902C13.7068 11.1693 13.6583 10.5432 13.629 10.1649C13.6159 9.9964 13.6067 9.87708 13.5989 9.89101C13.5661 9.81866 13.5527 9.72978 13.5395 9.64195C13.5107 9.45098 13.4827 9.26502 13.2573 9.26502H12.6772V9.69212C12.6772 9.69212 13.0129 9.69212 13.0129 10.4867C13.0184 10.6054 13.1751 11.6503 13.5555 11.6557C13.3326 11.6607 13.3342 11.7052 13.3352 11.7312L13.3353 11.7359C13.3353 12.375 13.8695 12.4441 14.3688 12.2637C14.6688 12.1553 14.9874 11.9436 15.2259 11.6826C15.5625 11.3144 15.6041 10.8376 15.1621 10.5761C15.0047 10.4831 14.834 10.4471 14.5952 10.4338C14.6424 10.2937 14.5977 10.1685 14.5628 10.0709C14.5337 9.98921 14.5114 9.9268 14.5555 9.89101C15.0561 9.48499 15.1007 9.11077 14.7365 8.7751C14.6892 8.73155 14.6435 8.67251 14.5964 8.61174L14.5964 8.61174C14.5077 8.49719 14.4142 8.37648 14.2967 8.34178C14.351 8.23226 14.4241 8.09957 14.5159 7.9467L13.6586 7.43194C13.5032 7.6908 13.5291 7.89327 13.5518 8.06973C13.5642 8.16658 13.5756 8.25559 13.5555 8.34178ZM14.4878 11.0079L14.4723 11.0246L14.4828 11.015C14.4845 11.0122 14.4861 11.0098 14.4878 11.0079ZM14.0342 11.3213C14.0339 11.3214 14.0345 11.3213 14.0356 11.3211L14.0358 11.321L14.0454 11.3192C14.0415 11.3198 14.0379 11.3206 14.0358 11.321L14.0342 11.3213ZM13.5989 11.6552C13.5872 11.6552 13.576 11.6553 13.5653 11.6555L13.5837 11.6551L13.5989 11.6552Z" fill="#A8AC71"/>
<path fill-rule="evenodd" clip-rule="evenodd" d="M14.884 7.91339C14.884 7.91339 14.1972 8.44605 14.3257 9.01393C14.4541 9.58181 15.8076 9.01393 15.644 8.46366C15.4804 7.91339 14.884 7.91339 14.884 7.91339Z" fill="#FCCA3D"/>
<path fill-rule="evenodd" clip-rule="evenodd" d="M19.7664 12.4029C19.7664 12.4029 20.6914 9.66155 19.2211 8.24251C17.7507 6.82347 16.0516 6.91843 16.0516 6.91843C16.0516 6.91843 15.5623 7.28197 16.0516 7.55923C16.5409 7.83649 16.3359 8.10233 16.3359 8.10233C16.3359 8.10233 15.5164 7.27029 14.9725 7.7564C14.4285 8.24251 15.4803 8.16853 15.3689 8.53455C15.2576 8.90057 14.7859 10.5256 15.4751 11.3461C16.1644 12.1665 14.8235 11.9885 15.0962 11.9885C15.3689 11.9885 16.3359 12.1794 16.3359 11.9885C16.3359 11.7975 16.672 12.7309 16.9597 12.7309C17.2474 12.7309 17.4695 12.4029 17.4695 12.4029C17.4695 12.4029 17.8728 12.7309 18.1185 12.7309C18.3642 12.7309 19.2211 12.5163 19.2211 12.5163L17.6016 11.1517C17.6016 11.1517 17.6992 10.5499 17.4695 10.4196C17.2397 10.2893 19.3112 11.574 19.4735 11.9885C19.6357 12.4029 19.7664 12.4029 19.7664 12.4029Z" fill="#8F4620"/>
<path d="M11.5664 11.7266C11.5664 11.7266 11.7166 11.248 11.8773 11.2148C12.0166 11.186 12.3094 11.4441 12.3094 11.4441C12.8297 14.334 14.0876 15.4627 16.1749 15.4627C18.2867 15.4627 19.5666 14.605 20.3135 11.9398C20.3135 11.9398 20.7106 11.5343 20.8507 11.5794C21.0032 11.6284 21.1943 12.1649 21.1943 12.1649C20.3375 15.2225 18.7185 16.5839 16.1749 16.5839C13.6067 16.5839 12.1638 15.0448 11.5664 11.7266Z" fill="#9FAB2F"/>
<path fill-rule="evenodd" clip-rule="evenodd" d="M13.8341 13.6564C13.8341 13.6564 16.8385 14.2938 18.0243 14.2938C19.2102 14.2938 16.9839 15.2616 16.1152 15.2616C15.7352 15.2616 15.2772 15.0312 14.7412 14.5705C14.6451 14.488 14.7382 14.3032 14.4455 14.3007C14.0374 14.2971 13.5304 14.2014 13.5789 14.1431C13.625 14.0876 14.2188 14.0708 14.1616 14.0102C14.0672 13.9101 13.8341 13.6564 13.8341 13.6564Z" fill="#2FC2DC"/>
<rect x="15.1666" y="14.1" width="2" height="1.07143" rx="0.166667" fill="#F9AA51"/>
<path d="M12.6754 12.1359C12.6754 12.1359 12.6754 11.7608 12.9294 11.5616C13.2205 11.3331 13.494 11.5616 13.494 11.5616C14.5595 13.0802 16.1528 13.5798 18.3812 13.0584C18.3812 13.0584 19.0475 13.2761 19.081 13.4191C19.1234 13.6007 18.609 14.0321 18.609 14.0321C16.004 14.6416 13.9904 14.0102 12.6754 12.1359Z" fill="#259485"/>
<path fill-rule="evenodd" clip-rule="evenodd" d="M17.0913 12.3503C17.0913 12.3503 15.8776 12.9891 16.2822 12.9891C16.6867 12.9891 18.27 13.3086 17.9619 12.9891C17.6538 12.6697 17.0913 12.3503 17.0913 12.3503Z" fill="#FCCA3D"/>
<path fill-rule="evenodd" clip-rule="evenodd" d="M15.6563 11.5882C15.6563 11.5882 15.4257 10.9222 14.9458 10.9222C14.4659 10.9222 14.6014 11.4686 14.3706 11.4686C14.1398 11.4686 14.5856 11.853 14.7843 11.853C14.983 11.853 15.6563 11.5882 15.6563 11.5882Z" fill="#FCCA3D"/>
</g>
<defs>
<clipPath id="clip0_90_653">
<rect width="32" height="24" fill="white" transform="translate(0.5)"/>
</clipPath>
</defs>
</svg>
