<svg width="33" height="24" viewBox="0 0 33 24" fill="none" xmlns="http://www.w3.org/2000/svg">
<g clip-path="url(#clip0_90_589)">
<rect width="32" height="24" transform="translate(0.5)" fill="white"/>
<path fill-rule="evenodd" clip-rule="evenodd" d="M0.5 0V24H32.5V0H0.5Z" fill="#2E42A5"/>
<mask id="mask0_90_589" style="mask-type:luminance" maskUnits="userSpaceOnUse" x="0" y="0" width="33" height="24">
<path fill-rule="evenodd" clip-rule="evenodd" d="M0.5 0V24H32.5V0H0.5Z" fill="white"/>
</mask>
<g mask="url(#mask0_90_589)">
</g>
<g clip-path="url(#clip1_90_589)">
<rect width="18" height="14" transform="translate(0.5)" fill="#2E42A5"/>
<path d="M-1.50427 12.9998L2.45668 14.737L18.5899 1.88874L20.6792 -0.692795L16.4435 -1.27342L9.86317 4.26327L4.56667 7.99371L-1.50427 12.9998Z" fill="#F7FCFF"/>
<path d="M-0.962036 14.2169L1.05589 15.2251L19.9289 -0.932648H17.0955L-0.962036 14.2169Z" fill="#F50100"/>
<path d="M20.5043 12.9998L16.5433 14.737L0.410126 1.88874L-1.67919 -0.692795L2.55648 -1.27342L9.13683 4.26327L14.4333 7.99371L20.5043 12.9998Z" fill="#F7FCFF"/>
<path d="M20.3691 13.8733L18.3512 14.8815L10.3149 7.96351L7.93229 7.19059L-1.8802 -0.683947H0.953194L10.7602 7.00368L13.3651 7.9305L20.3691 13.8733Z" fill="#F50100"/>
<path fill-rule="evenodd" clip-rule="evenodd" d="M10.4845 0H8.48451V6H0.5V8H8.48451V14H10.4845V8H18.5V6H10.4845V0Z" fill="#F50100"/>
<path fill-rule="evenodd" clip-rule="evenodd" d="M6.98451 0H11.9845V4.5H18.5V9.5H11.9845L12 14H7L6.98451 9.5H0.5V4.5H6.98451V0ZM8.48451 6H0.5V8H8.48451V14H10.4845V8H18.5V6H10.4845V0H8.48451V6Z" fill="#F7FCFF"/>
</g>
<path fill-rule="evenodd" clip-rule="evenodd" d="M24.6 7.47062L24.3403 8.98464L25.7 8.26981L27.0597 8.98464L26.8 7.47062L27.9 6.39838L26.3798 6.17749L25.7 4.79999L25.0202 6.17749L23.5 6.39838L24.6 7.47062ZM20.6 13.0706L20.3403 14.5846L21.7 13.8698L23.0597 14.5846L22.8 13.0706L23.9 11.9984L22.3798 11.7775L21.7 10.4L21.0202 11.7775L19.5 11.9984L20.6 13.0706ZM23.9266 19.4635L23.5898 21.4271L25.3532 20.5L27.1165 21.4271L26.7798 19.4635L28.2063 18.0729L26.2348 17.7865L25.3532 16L24.4715 17.7865L22.5 18.0729L23.9266 19.4635ZM27.3394 14.58L27.5988 13.0677L26.5 11.9966L28.0185 11.776L28.6976 10.4L29.3766 11.776L30.8951 11.9966L29.7963 13.0677L30.0557 14.58L28.6976 13.866L27.3394 14.58Z" fill="#F50100"/>
<path d="M24.3403 8.98464L24.1432 8.95083L24.0747 9.35024L24.4334 9.16166L24.3403 8.98464ZM24.6 7.47062L24.7971 7.50443L24.8149 7.40079L24.7396 7.3274L24.6 7.47062ZM25.7 8.26981L25.7931 8.09279L25.7 8.04386L25.6069 8.09279L25.7 8.26981ZM27.0597 8.98464L26.9666 9.16166L27.3253 9.35024L27.2568 8.95083L27.0597 8.98464ZM26.8 7.47062L26.6604 7.3274L26.5851 7.40079L26.6029 7.50443L26.8 7.47062ZM27.9 6.39838L28.0396 6.5416L28.3298 6.25873L27.9288 6.20046L27.9 6.39838ZM26.3798 6.17749L26.2005 6.266L26.247 6.36029L26.3511 6.37541L26.3798 6.17749ZM25.7 4.79999L25.8793 4.71147L25.7 4.34808L25.5207 4.71147L25.7 4.79999ZM25.0202 6.17749L25.0489 6.37541L25.153 6.36029L25.1995 6.266L25.0202 6.17749ZM23.5 6.39838L23.4712 6.20046L23.0702 6.25873L23.3604 6.5416L23.5 6.39838ZM20.3403 14.5846L20.1432 14.5508L20.0747 14.9502L20.4334 14.7617L20.3403 14.5846ZM20.6 13.0706L20.7971 13.1044L20.8149 13.0008L20.7396 12.9274L20.6 13.0706ZM21.7 13.8698L21.7931 13.6928L21.7 13.6439L21.6069 13.6928L21.7 13.8698ZM23.0597 14.5846L22.9666 14.7617L23.3253 14.9502L23.2568 14.5508L23.0597 14.5846ZM22.8 13.0706L22.6604 12.9274L22.5851 13.0008L22.6029 13.1044L22.8 13.0706ZM23.9 11.9984L24.0396 12.1416L24.3298 11.8587L23.9288 11.8005L23.9 11.9984ZM22.3798 11.7775L22.2005 11.866L22.247 11.9603L22.3511 11.9754L22.3798 11.7775ZM21.7 10.4L21.8793 10.3115L21.7 9.94808L21.5207 10.3115L21.7 10.4ZM21.0202 11.7775L21.0489 11.9754L21.153 11.9603L21.1995 11.866L21.0202 11.7775ZM19.5 11.9984L19.4712 11.8005L19.0702 11.8587L19.3604 12.1416L19.5 11.9984ZM23.5898 21.4271L23.3927 21.3932L23.3242 21.7927L23.6829 21.6041L23.5898 21.4271ZM23.9266 19.4635L24.1237 19.4973L24.1415 19.3937L24.0662 19.3203L23.9266 19.4635ZM25.3532 20.5L25.4462 20.323L25.3532 20.274L25.2601 20.323L25.3532 20.5ZM27.1165 21.4271L27.0235 21.6041L27.3822 21.7927L27.3136 21.3932L27.1165 21.4271ZM26.7798 19.4635L26.6402 19.3203L26.5649 19.3937L26.5826 19.4973L26.7798 19.4635ZM28.2063 18.0729L28.3459 18.2162L28.6361 17.9333L28.2351 17.875L28.2063 18.0729ZM26.2348 17.7865L26.0555 17.875L26.102 17.9693L26.2061 17.9844L26.2348 17.7865ZM25.3532 16L25.5325 15.9115L25.3532 15.5481L25.1738 15.9115L25.3532 16ZM24.4715 17.7865L24.5003 17.9844L24.6043 17.9693L24.6508 17.875L24.4715 17.7865ZM22.5 18.0729L22.4712 17.875L22.0702 17.9333L22.3604 18.2162L22.5 18.0729ZM27.5988 13.0677L27.7959 13.1015L27.8137 12.9978L27.7384 12.9244L27.5988 13.0677ZM27.3394 14.58L27.1423 14.5462L27.0738 14.9456L27.4325 14.757L27.3394 14.58ZM26.5 11.9966L26.4712 11.7987L26.0702 11.857L26.3604 12.1398L26.5 11.9966ZM28.0185 11.776L28.0472 11.9739L28.1513 11.9588L28.1978 11.8645L28.0185 11.776ZM28.6976 10.4L28.8769 10.3115L28.6976 9.94808L28.5182 10.3115L28.6976 10.4ZM29.3766 11.776L29.1973 11.8645L29.2438 11.9588L29.3479 11.9739L29.3766 11.776ZM30.8951 11.9966L31.0347 12.1398L31.3249 11.857L30.9239 11.7987L30.8951 11.9966ZM29.7963 13.0677L29.6567 12.9244L29.5814 12.9978L29.5992 13.1015L29.7963 13.0677ZM30.0557 14.58L29.9627 14.757L30.3213 14.9456L30.2528 14.5462L30.0557 14.58ZM28.6976 13.866L28.7906 13.6889L28.6976 13.64L28.6045 13.6889L28.6976 13.866ZM24.5374 9.01845L24.7971 7.50443L24.4029 7.43681L24.1432 8.95083L24.5374 9.01845ZM25.6069 8.09279L24.2473 8.80761L24.4334 9.16166L25.7931 8.44684L25.6069 8.09279ZM27.1527 8.80761L25.7931 8.09279L25.6069 8.44684L26.9666 9.16166L27.1527 8.80761ZM26.6029 7.50443L26.8626 9.01845L27.2568 8.95083L26.9971 7.43681L26.6029 7.50443ZM27.7604 6.25516L26.6604 7.3274L26.9396 7.61383L28.0396 6.5416L27.7604 6.25516ZM26.3511 6.37541L27.8712 6.5963L27.9288 6.20046L26.4086 5.97957L26.3511 6.37541ZM25.5207 4.8885L26.2005 6.266L26.5592 6.08898L25.8793 4.71147L25.5207 4.8885ZM25.1995 6.266L25.8793 4.8885L25.5207 4.71147L24.8408 6.08898L25.1995 6.266ZM23.5288 6.5963L25.0489 6.37541L24.9914 5.97957L23.4712 6.20046L23.5288 6.5963ZM24.7396 7.3274L23.6396 6.25516L23.3604 6.5416L24.4604 7.61383L24.7396 7.3274ZM20.5374 14.6185L20.7971 13.1044L20.4029 13.0368L20.1432 14.5508L20.5374 14.6185ZM21.6069 13.6928L20.2473 14.4076L20.4334 14.7617L21.7931 14.0468L21.6069 13.6928ZM23.1527 14.4076L21.7931 13.6928L21.6069 14.0468L22.9666 14.7617L23.1527 14.4076ZM22.6029 13.1044L22.8626 14.6185L23.2568 14.5508L22.9971 13.0368L22.6029 13.1044ZM23.7604 11.8552L22.6604 12.9274L22.9396 13.2138L24.0396 12.1416L23.7604 11.8552ZM22.3511 11.9754L23.8712 12.1963L23.9288 11.8005L22.4086 11.5796L22.3511 11.9754ZM21.5207 10.4885L22.2005 11.866L22.5592 11.689L21.8793 10.3115L21.5207 10.4885ZM21.1995 11.866L21.8793 10.4885L21.5207 10.3115L20.8408 11.689L21.1995 11.866ZM19.5288 12.1963L21.0489 11.9754L20.9914 11.5796L19.4712 11.8005L19.5288 12.1963ZM20.7396 12.9274L19.6396 11.8552L19.3604 12.1416L20.4604 13.2138L20.7396 12.9274ZM23.7869 21.4609L24.1237 19.4973L23.7295 19.4297L23.3927 21.3932L23.7869 21.4609ZM25.2601 20.323L23.4967 21.25L23.6829 21.6041L25.4462 20.677L25.2601 20.323ZM27.2096 21.25L25.4462 20.323L25.2601 20.677L27.0235 21.6041L27.2096 21.25ZM26.5826 19.4973L26.9194 21.4609L27.3136 21.3932L26.9769 19.4297L26.5826 19.4973ZM28.0667 17.9297L26.6402 19.3203L26.9194 19.6067L28.3459 18.2162L28.0667 17.9297ZM26.2061 17.9844L28.1776 18.2709L28.2351 17.875L26.2636 17.5886L26.2061 17.9844ZM25.1738 16.0885L26.0555 17.875L26.4142 17.698L25.5325 15.9115L25.1738 16.0885ZM24.6508 17.875L25.5325 16.0885L25.1738 15.9115L24.2921 17.698L24.6508 17.875ZM22.5288 18.2709L24.5003 17.9844L24.4427 17.5886L22.4712 17.875L22.5288 18.2709ZM24.0662 19.3203L22.6396 17.9297L22.3604 18.2162L23.787 19.6067L24.0662 19.3203ZM27.4017 13.0338L27.1423 14.5462L27.5365 14.6138L27.7959 13.1015L27.4017 13.0338ZM26.3604 12.1398L27.4592 13.2109L27.7384 12.9244L26.6396 11.8534L26.3604 12.1398ZM27.9897 11.578L26.4712 11.7987L26.5288 12.1945L28.0472 11.9739L27.9897 11.578ZM28.5182 10.3115L27.8391 11.6875L28.1978 11.8645L28.8769 10.4885L28.5182 10.3115ZM29.556 11.6875L28.8769 10.3115L28.5182 10.4885L29.1973 11.8645L29.556 11.6875ZM30.9239 11.7987L29.4054 11.578L29.3479 11.9739L30.8664 12.1945L30.9239 11.7987ZM29.9359 13.2109L31.0347 12.1398L30.7555 11.8534L29.6567 12.9244L29.9359 13.2109ZM30.2528 14.5462L29.9935 13.0338L29.5992 13.1015L29.8586 14.6138L30.2528 14.5462ZM28.6045 14.043L29.9627 14.757L30.1488 14.403L28.7906 13.6889L28.6045 14.043ZM27.4325 14.757L28.7906 14.043L28.6045 13.6889L27.2463 14.403L27.4325 14.757Z" fill="#F7FCFF"/>
</g>
<defs>
<clipPath id="clip0_90_589">
<rect width="32" height="24" fill="white" transform="translate(0.5)"/>
</clipPath>
<clipPath id="clip1_90_589">
<rect width="18" height="14" fill="white" transform="translate(0.5)"/>
</clipPath>
</defs>
</svg>
