<svg width="33" height="24" viewBox="0 0 33 24" fill="none" xmlns="http://www.w3.org/2000/svg">
<g clip-path="url(#clip0_90_1307)">
<rect width="32" height="24" transform="translate(0.5)" fill="white"/>
<path fill-rule="evenodd" clip-rule="evenodd" d="M8.5 0H32.5V24H8.5V0Z" fill="#EF0000"/>
<path fill-rule="evenodd" clip-rule="evenodd" d="M0.5 0H12.5V24H0.5V0Z" fill="#2F8D00"/>
<mask id="mask0_90_1307" style="mask-type:luminance" maskUnits="userSpaceOnUse" x="4" y="4" width="17" height="16">
<path fill-rule="evenodd" clip-rule="evenodd" d="M12.4047 19.8072C8.14423 19.8072 4.69043 16.3118 4.69043 12C4.69043 7.6882 8.14423 4.19278 12.4047 4.19278C16.6652 4.19278 20.119 7.6882 20.119 12C20.119 16.3118 16.6652 19.8072 12.4047 19.8072Z" fill="white"/>
</mask>
<g mask="url(#mask0_90_1307)">
<path fill-rule="evenodd" clip-rule="evenodd" d="M11.9285 4H12.9285V6.6988H11.9285V4Z" fill="#FFE017"/>
<path fill-rule="evenodd" clip-rule="evenodd" d="M11.9285 17.494H12.9285V20H11.9285V17.494Z" fill="#FFE017"/>
<path d="M4.81437 12.4038L4.53479 11.6865C7.61998 10.4548 9.94854 9.6605 11.5285 9.30252C13.8466 8.77732 16.3937 8.38873 19.1699 8.13647L19.238 8.90447C16.4937 9.15383 13.9793 9.53743 11.695 10.055C10.162 10.4023 7.8658 11.1856 4.81437 12.4038Z" fill="#FFE017"/>
<path d="M19.6408 7.6639L19.414 8.40001C17.0822 7.66389 15.1828 7.34748 13.7228 7.44548L13.6724 6.67609C15.24 6.57086 17.2271 6.90189 19.6408 7.6639Z" fill="#FFE017"/>
<path d="M20.4476 11.7798L20.0166 12.4156C18.8279 11.5904 17.3635 11.1758 15.6133 11.1758V10.4048C17.5107 10.4048 19.1254 10.8618 20.4476 11.7798Z" fill="#FFE017"/>
<path d="M19.802 12.0106L19.999 12.7554C17.4364 13.4496 15.0304 13.8434 12.781 13.9361C10.516 14.0295 7.87616 13.6343 4.85913 12.7534L5.07031 12.0126C8.01401 12.872 10.5747 13.2554 12.75 13.1657C14.9408 13.0754 17.2915 12.6906 19.802 12.0106Z" fill="#FFE017"/>
<path d="M19.5117 15.6359L18.3073 16.8706C16.0186 14.584 14.0037 12.949 12.275 11.9667C10.5166 10.9675 8.22366 9.95293 5.39954 8.92703L5.97868 7.2941C8.88609 8.35025 11.2634 9.40215 13.1142 10.4539C14.9946 11.5224 17.123 13.2494 19.5117 15.6359Z" fill="#FFE017"/>
<path d="M5.9583 16.3353L5.50244 15.7175C5.5661 15.6694 5.67969 15.5891 5.83619 15.4875C6.09459 15.3196 6.38153 15.152 6.69025 14.9954C7.54055 14.5641 8.39349 14.2947 9.20701 14.27C9.24679 14.2688 9.28641 14.2682 9.32586 14.2682V15.0393C9.29408 15.0393 9.26209 15.0398 9.22989 15.0407C8.54432 15.0616 7.79145 15.2993 7.03166 15.6847C6.74846 15.8284 6.48459 15.9825 6.24777 16.1364C6.16534 16.1899 6.09241 16.2394 6.02991 16.2836C5.99348 16.3093 5.9693 16.327 5.9583 16.3353Z" fill="#FFE017"/>
<path d="M6.31213 16.6026L6.504 15.8563C9.04412 16.5253 11.0024 16.8586 12.3691 16.8586C13.7307 16.8586 15.7573 16.4654 18.4357 15.6763L18.6487 16.4166C15.9069 17.2245 13.8181 17.6297 12.3691 17.6297C10.9252 17.6297 8.90948 17.2866 6.31213 16.6026Z" fill="#FFE017"/>
<path d="M5.32239 9.69443L6.52946 8.46249L8.29679 10.2361L7.08971 11.4681L5.32239 9.69443Z" fill="#FFE017"/>
<path d="M15.3359 15.8478L16.2338 14.3698L19.0374 16.1143L18.1396 17.5922L15.3359 15.8478Z" fill="#FFE017"/>
</g>
<path fill-rule="evenodd" clip-rule="evenodd" d="M4.69043 12C4.69043 16.3118 8.14423 19.8072 12.4047 19.8072C16.6652 19.8072 20.119 16.3118 20.119 12C20.119 7.6882 16.6652 4.19278 12.4047 4.19278C8.14423 4.19278 4.69043 7.6882 4.69043 12ZM19.1666 12.0964C19.1666 15.8227 16.1819 18.8434 12.5 18.8434C8.81806 18.8434 5.83329 15.8227 5.83329 12.0964C5.83329 8.37014 8.81806 5.34941 12.5 5.34941C16.1819 5.34941 19.1666 8.37014 19.1666 12.0964Z" fill="#F9E813"/>
<path d="M8.15662 7.18527V13.446C8.56875 15.9241 9.95721 17.1631 12.322 17.1631C14.6868 17.1631 16.0753 15.9241 16.4874 13.446V7.18527H8.15662Z" fill="white"/>
<path d="M7.58521 6.60696H17.0588V13.4943L17.0509 13.542C16.5933 16.2936 14.9709 17.7414 12.322 17.7414C9.67313 17.7414 8.05077 16.2936 7.59313 13.542L7.58521 13.4943V6.60696Z" fill="#C51918"/>
<path d="M9.7522 8.71069H14.8919V13.1516C14.8919 13.1516 14.5105 15.4449 12.3221 15.4449C10.1336 15.4449 9.7522 13.1516 9.7522 13.1516V8.71069Z" fill="#F7FCFF"/>
<path fill-rule="evenodd" clip-rule="evenodd" d="M8.5 7.08435H9.22289V7.56628H8.5V7.08435Z" fill="#F9E813"/>
<path fill-rule="evenodd" clip-rule="evenodd" d="M8.11902 7.27713H9.45235V7.51809H8.11902V7.27713Z" fill="#060101"/>
<path fill-rule="evenodd" clip-rule="evenodd" d="M8.11902 7.46988H8.84191V7.71084H8.11902V7.46988Z" fill="#F9E813"/>
<path fill-rule="evenodd" clip-rule="evenodd" d="M8.88098 7.46988H9.60387V7.71084H8.88098V7.46988Z" fill="#F9E813"/>
<path fill-rule="evenodd" clip-rule="evenodd" d="M8.11902 8.04822H8.60095V8.77111H8.11902V8.04822Z" fill="#F9E813"/>
<path fill-rule="evenodd" clip-rule="evenodd" d="M9.07141 8.04822H9.55334V8.77111H9.07141V8.04822Z" fill="#F9E813"/>
<path fill-rule="evenodd" clip-rule="evenodd" d="M8.69043 8.04822H8.93139V8.77111H8.69043V8.04822Z" fill="#F9E813"/>
<path fill-rule="evenodd" clip-rule="evenodd" d="M8.11902 7.85544H9.45235V8.0964H8.11902V7.85544Z" fill="#060101"/>
<path fill-rule="evenodd" clip-rule="evenodd" d="M8.11902 8.43375H9.45235V8.67471H8.11902V8.43375Z" fill="#060101"/>
<path fill-rule="evenodd" clip-rule="evenodd" d="M8.30945 7.66266H8.55041V7.90362H8.30945V7.66266Z" fill="#F9E813"/>
<path fill-rule="evenodd" clip-rule="evenodd" d="M9.07141 7.66266H9.31237V7.90362H9.07141V7.66266Z" fill="#F9E813"/>
<path fill-rule="evenodd" clip-rule="evenodd" d="M8.69043 7.46988H8.93139V7.95181H8.69043V7.46988Z" fill="#F9E813"/>
<path fill-rule="evenodd" clip-rule="evenodd" d="M12.119 7.08435H12.8419V7.56628H12.119V7.08435Z" fill="#F9E813"/>
<path fill-rule="evenodd" clip-rule="evenodd" d="M11.738 7.27713H13.0714V7.51809H11.738V7.27713Z" fill="#060101"/>
<path fill-rule="evenodd" clip-rule="evenodd" d="M11.738 7.46988H12.4609V7.71084H11.738V7.46988Z" fill="#F9E813"/>
<path fill-rule="evenodd" clip-rule="evenodd" d="M12.5 7.46988H13.2229V7.71084H12.5V7.46988Z" fill="#F9E813"/>
<path fill-rule="evenodd" clip-rule="evenodd" d="M11.738 8.04822H12.22V8.77111H11.738V8.04822Z" fill="#F9E813"/>
<path fill-rule="evenodd" clip-rule="evenodd" d="M12.6904 8.04822H13.1724V8.77111H12.6904V8.04822Z" fill="#F9E813"/>
<path fill-rule="evenodd" clip-rule="evenodd" d="M12.3094 8.04822H12.5504V8.77111H12.3094V8.04822Z" fill="#F9E813"/>
<path fill-rule="evenodd" clip-rule="evenodd" d="M11.738 7.85544H13.0714V8.0964H11.738V7.85544Z" fill="#060101"/>
<path fill-rule="evenodd" clip-rule="evenodd" d="M11.738 8.43375H13.0714V8.67471H11.738V8.43375Z" fill="#060101"/>
<path fill-rule="evenodd" clip-rule="evenodd" d="M11.9285 7.66266H12.1694V7.90362H11.9285V7.66266Z" fill="#F9E813"/>
<path fill-rule="evenodd" clip-rule="evenodd" d="M12.6904 7.66266H12.9314V7.90362H12.6904V7.66266Z" fill="#F9E813"/>
<path fill-rule="evenodd" clip-rule="evenodd" d="M12.3094 7.46988H12.5504V7.95181H12.3094V7.46988Z" fill="#F9E813"/>
<path fill-rule="evenodd" clip-rule="evenodd" d="M15.5476 7.08435H16.2705V7.56628H15.5476V7.08435Z" fill="#F9E813"/>
<path fill-rule="evenodd" clip-rule="evenodd" d="M15.1666 7.27713H16.5V7.51809H15.1666V7.27713Z" fill="#060101"/>
<path fill-rule="evenodd" clip-rule="evenodd" d="M15.1666 7.46988H15.8895V7.71084H15.1666V7.46988Z" fill="#F9E813"/>
<path fill-rule="evenodd" clip-rule="evenodd" d="M15.9286 7.46988H16.6515V7.71084H15.9286V7.46988Z" fill="#F9E813"/>
<path fill-rule="evenodd" clip-rule="evenodd" d="M15.1666 8.04822H15.6486V8.77111H15.1666V8.04822Z" fill="#F9E813"/>
<path fill-rule="evenodd" clip-rule="evenodd" d="M16.119 8.04822H16.6009V8.77111H16.119V8.04822Z" fill="#F9E813"/>
<path fill-rule="evenodd" clip-rule="evenodd" d="M15.738 8.04822H15.979V8.77111H15.738V8.04822Z" fill="#F9E813"/>
<path fill-rule="evenodd" clip-rule="evenodd" d="M15.1666 7.85544H16.5V8.0964H15.1666V7.85544Z" fill="#060101"/>
<path fill-rule="evenodd" clip-rule="evenodd" d="M15.1666 8.43375H16.5V8.67471H15.1666V8.43375Z" fill="#060101"/>
<path fill-rule="evenodd" clip-rule="evenodd" d="M15.3571 7.66266H15.598V7.90362H15.3571V7.66266Z" fill="#F9E813"/>
<path fill-rule="evenodd" clip-rule="evenodd" d="M16.119 7.66266H16.36V7.90362H16.119V7.66266Z" fill="#F9E813"/>
<path fill-rule="evenodd" clip-rule="evenodd" d="M15.738 7.46988H15.979V7.95181H15.738V7.46988Z" fill="#F9E813"/>
<path fill-rule="evenodd" clip-rule="evenodd" d="M15.5476 10.5542H16.2705V11.0362H15.5476V10.5542Z" fill="#F9E813"/>
<path fill-rule="evenodd" clip-rule="evenodd" d="M15.1666 10.747H16.5V10.988H15.1666V10.747Z" fill="#060101"/>
<path fill-rule="evenodd" clip-rule="evenodd" d="M15.1666 10.9398H15.8895V11.1807H15.1666V10.9398Z" fill="#F9E813"/>
<path fill-rule="evenodd" clip-rule="evenodd" d="M15.9286 10.9398H16.6515V11.1807H15.9286V10.9398Z" fill="#F9E813"/>
<path fill-rule="evenodd" clip-rule="evenodd" d="M15.1666 11.5181H15.6486V12.241H15.1666V11.5181Z" fill="#F9E813"/>
<path fill-rule="evenodd" clip-rule="evenodd" d="M16.119 11.5181H16.6009V12.241H16.119V11.5181Z" fill="#F9E813"/>
<path fill-rule="evenodd" clip-rule="evenodd" d="M15.738 11.5181H15.979V12.241H15.738V11.5181Z" fill="#F9E813"/>
<path fill-rule="evenodd" clip-rule="evenodd" d="M15.1666 11.3253H16.5V11.5663H15.1666V11.3253Z" fill="#060101"/>
<path fill-rule="evenodd" clip-rule="evenodd" d="M15.1666 11.9036H16.5V12.1446H15.1666V11.9036Z" fill="#060101"/>
<path fill-rule="evenodd" clip-rule="evenodd" d="M15.3571 11.1325H15.598V11.3735H15.3571V11.1325Z" fill="#F9E813"/>
<path fill-rule="evenodd" clip-rule="evenodd" d="M16.119 11.1325H16.36V11.3735H16.119V11.1325Z" fill="#F9E813"/>
<path fill-rule="evenodd" clip-rule="evenodd" d="M15.738 10.9398H15.979V11.4217H15.738V10.9398Z" fill="#F9E813"/>
<path fill-rule="evenodd" clip-rule="evenodd" d="M8.5 10.5542H9.22289V11.0362H8.5V10.5542Z" fill="#F9E813"/>
<path fill-rule="evenodd" clip-rule="evenodd" d="M8.11902 10.747H9.45235V10.988H8.11902V10.747Z" fill="#060101"/>
<path fill-rule="evenodd" clip-rule="evenodd" d="M8.11902 10.9398H8.84191V11.1807H8.11902V10.9398Z" fill="#F9E813"/>
<path fill-rule="evenodd" clip-rule="evenodd" d="M8.88098 10.9398H9.60387V11.1807H8.88098V10.9398Z" fill="#F9E813"/>
<path fill-rule="evenodd" clip-rule="evenodd" d="M8.11902 11.5181H8.60095V12.241H8.11902V11.5181Z" fill="#F9E813"/>
<path fill-rule="evenodd" clip-rule="evenodd" d="M9.07141 11.5181H9.55334V12.241H9.07141V11.5181Z" fill="#F9E813"/>
<path fill-rule="evenodd" clip-rule="evenodd" d="M8.69043 11.5181H8.93139V12.241H8.69043V11.5181Z" fill="#F9E813"/>
<path fill-rule="evenodd" clip-rule="evenodd" d="M8.11902 11.3253H9.45235V11.5663H8.11902V11.3253Z" fill="#060101"/>
<path fill-rule="evenodd" clip-rule="evenodd" d="M8.11902 11.9036H9.45235V12.1446H8.11902V11.9036Z" fill="#060101"/>
<path fill-rule="evenodd" clip-rule="evenodd" d="M8.30945 11.1325H8.55041V11.3735H8.30945V11.1325Z" fill="#F9E813"/>
<path fill-rule="evenodd" clip-rule="evenodd" d="M9.07141 11.1325H9.31237V11.3735H9.07141V11.1325Z" fill="#F9E813"/>
<path fill-rule="evenodd" clip-rule="evenodd" d="M8.69043 10.9398H8.93139V11.4217H8.69043V10.9398Z" fill="#F9E813"/>
<path fill-rule="evenodd" clip-rule="evenodd" d="M8.96375 14.904L9.42841 14.3502L9.79759 14.66L9.33292 15.2137L8.96375 14.904Z" fill="#F9E813"/>
<path fill-rule="evenodd" clip-rule="evenodd" d="M8.86658 15.3197L9.72363 14.2983L9.90822 14.4532L9.05117 15.4746L8.86658 15.3197Z" fill="#060101"/>
<path fill-rule="evenodd" clip-rule="evenodd" d="M9.01416 15.4436L9.47883 14.8899L9.66341 15.0448L9.19875 15.5985L9.01416 15.4436Z" fill="#F9E813"/>
<path fill-rule="evenodd" clip-rule="evenodd" d="M9.50391 14.86L9.96857 14.3062L10.1532 14.4611L9.6885 15.0148L9.50391 14.86Z" fill="#F9E813"/>
<path fill-rule="evenodd" clip-rule="evenodd" d="M9.45728 15.8154L9.76705 15.4462L10.3208 15.9109L10.011 16.28L9.45728 15.8154Z" fill="#F9E813"/>
<path fill-rule="evenodd" clip-rule="evenodd" d="M10.0695 15.0858L10.3792 14.7166L10.933 15.1813L10.6232 15.5505L10.0695 15.0858Z" fill="#F9E813"/>
<path fill-rule="evenodd" clip-rule="evenodd" d="M9.82458 15.3776L9.97947 15.193L10.5332 15.6577L10.3784 15.8423L9.82458 15.3776Z" fill="#F9E813"/>
<path fill-rule="evenodd" clip-rule="evenodd" d="M9.30957 15.6914L10.1666 14.67L10.3512 14.8249L9.49416 15.8463L9.30957 15.6914Z" fill="#060101"/>
<path fill-rule="evenodd" clip-rule="evenodd" d="M9.75256 16.0632L10.6096 15.0418L10.7942 15.1967L9.93715 16.2181L9.75256 16.0632Z" fill="#060101"/>
<path fill-rule="evenodd" clip-rule="evenodd" d="M9.2843 15.4216L9.43919 15.237L9.62378 15.3919L9.46889 15.5765L9.2843 15.4216Z" fill="#F9E813"/>
<path fill-rule="evenodd" clip-rule="evenodd" d="M9.77405 14.838L9.92894 14.6534L10.1135 14.8083L9.95864 14.9929L9.77405 14.838Z" fill="#F9E813"/>
<path fill-rule="evenodd" clip-rule="evenodd" d="M9.38147 15.0059L9.53636 14.8213L9.90554 15.1311L9.75065 15.3157L9.38147 15.0059Z" fill="#F9E813"/>
<path fill-rule="evenodd" clip-rule="evenodd" d="M15.4784 14.4662L15.9431 15.02L15.5739 15.3298L15.1092 14.776L15.4784 14.4662Z" fill="#F9E813"/>
<path fill-rule="evenodd" clip-rule="evenodd" d="M15.0858 14.2983L15.9429 15.3197L15.7583 15.4746L14.9012 14.4532L15.0858 14.2983Z" fill="#060101"/>
<path fill-rule="evenodd" clip-rule="evenodd" d="M14.9382 14.4222L15.4029 14.976L15.2183 15.1309L14.7536 14.5771L14.9382 14.4222Z" fill="#F9E813"/>
<path fill-rule="evenodd" clip-rule="evenodd" d="M15.428 15.0059L15.8926 15.5597L15.7081 15.7145L15.2434 15.1608L15.428 15.0059Z" fill="#F9E813"/>
<path fill-rule="evenodd" clip-rule="evenodd" d="M14.4951 14.794L14.8049 15.1632L14.2511 15.6278L13.9414 15.2586L14.4951 14.794Z" fill="#F9E813"/>
<path fill-rule="evenodd" clip-rule="evenodd" d="M15.1073 15.5235L15.4171 15.8927L14.8633 16.3574L14.5535 15.9882L15.1073 15.5235Z" fill="#F9E813"/>
<path fill-rule="evenodd" clip-rule="evenodd" d="M14.8624 15.2317L15.0173 15.4163L14.4635 15.8809L14.3087 15.6964L14.8624 15.2317Z" fill="#F9E813"/>
<path fill-rule="evenodd" clip-rule="evenodd" d="M14.6428 14.67L15.4999 15.6914L15.3153 15.8463L14.4582 14.8249L14.6428 14.67Z" fill="#060101"/>
<path fill-rule="evenodd" clip-rule="evenodd" d="M14.1998 15.0418L15.0569 16.0632L14.8723 16.2181L14.0152 15.1967L14.1998 15.0418Z" fill="#060101"/>
<path fill-rule="evenodd" clip-rule="evenodd" d="M14.913 14.692L15.0679 14.8766L14.8833 15.0315L14.7284 14.8469L14.913 14.692Z" fill="#F9E813"/>
<path fill-rule="evenodd" clip-rule="evenodd" d="M15.4027 15.2757L15.5576 15.4603L15.373 15.6152L15.2181 15.4306L15.4027 15.2757Z" fill="#F9E813"/>
<path fill-rule="evenodd" clip-rule="evenodd" d="M15.3055 14.86L15.4604 15.0445L15.0913 15.3543L14.9364 15.1697L15.3055 14.86Z" fill="#F9E813"/>
<path fill-rule="evenodd" clip-rule="evenodd" d="M13.0584 9.20483H11.738V10.1663C11.738 10.1663 11.836 10.6628 12.3982 10.6628C12.9604 10.6628 13.0584 10.1663 13.0584 10.1663V9.20483ZM12.3095 9.59038C12.3095 9.69684 12.2242 9.78315 12.119 9.78315C12.0138 9.78315 11.9285 9.69684 11.9285 9.59038C11.9285 9.48391 12.0138 9.39761 12.119 9.39761C12.2242 9.39761 12.3095 9.48391 12.3095 9.59038ZM12.119 10.5542C12.2242 10.5542 12.3095 10.4679 12.3095 10.3615C12.3095 10.255 12.2242 10.1687 12.119 10.1687C12.0138 10.1687 11.9285 10.255 11.9285 10.3615C11.9285 10.4679 12.0138 10.5542 12.119 10.5542ZM12.8809 10.3615C12.8809 10.4679 12.7956 10.5542 12.6904 10.5542C12.5852 10.5542 12.4999 10.4679 12.4999 10.3615C12.4999 10.255 12.5852 10.1687 12.6904 10.1687C12.7956 10.1687 12.8809 10.255 12.8809 10.3615ZM12.4047 10.1687C12.5099 10.1687 12.5952 10.0824 12.5952 9.97592C12.5952 9.86945 12.5099 9.78315 12.4047 9.78315C12.2995 9.78315 12.2142 9.86945 12.2142 9.97592C12.2142 10.0824 12.2995 10.1687 12.4047 10.1687ZM12.8809 9.59038C12.8809 9.69684 12.7956 9.78315 12.6904 9.78315C12.5852 9.78315 12.4999 9.69684 12.4999 9.59038C12.4999 9.48391 12.5852 9.39761 12.6904 9.39761C12.7956 9.39761 12.8809 9.48391 12.8809 9.59038Z" fill="#013399"/>
<path fill-rule="evenodd" clip-rule="evenodd" d="M13.0584 11.3253H11.738V12.2868C11.738 12.2868 11.836 12.7833 12.3982 12.7833C12.9604 12.7833 13.0584 12.2868 13.0584 12.2868V11.3253ZM12.3095 11.7109C12.3095 11.8173 12.2242 11.9036 12.119 11.9036C12.0138 11.9036 11.9285 11.8173 11.9285 11.7109C11.9285 11.6044 12.0138 11.5181 12.119 11.5181C12.2242 11.5181 12.3095 11.6044 12.3095 11.7109ZM12.119 12.6747C12.2242 12.6747 12.3095 12.5884 12.3095 12.4819C12.3095 12.3755 12.2242 12.2892 12.119 12.2892C12.0138 12.2892 11.9285 12.3755 11.9285 12.4819C11.9285 12.5884 12.0138 12.6747 12.119 12.6747ZM12.8809 12.4819C12.8809 12.5884 12.7956 12.6747 12.6904 12.6747C12.5852 12.6747 12.4999 12.5884 12.4999 12.4819C12.4999 12.3755 12.5852 12.2892 12.6904 12.2892C12.7956 12.2892 12.8809 12.3755 12.8809 12.4819ZM12.4047 12.2892C12.5099 12.2892 12.5952 12.2029 12.5952 12.0964C12.5952 11.9899 12.5099 11.9036 12.4047 11.9036C12.2995 11.9036 12.2142 11.9899 12.2142 12.0964C12.2142 12.2029 12.2995 12.2892 12.4047 12.2892ZM12.8809 11.7109C12.8809 11.8173 12.7956 11.9036 12.6904 11.9036C12.5852 11.9036 12.4999 11.8173 12.4999 11.7109C12.4999 11.6044 12.5852 11.5181 12.6904 11.5181C12.7956 11.5181 12.8809 11.6044 12.8809 11.7109Z" fill="#013399"/>
<path fill-rule="evenodd" clip-rule="evenodd" d="M14.7726 11.3253H13.4523V12.2868C13.4523 12.2868 13.5502 12.7833 14.1124 12.7833C14.6746 12.7833 14.7726 12.2868 14.7726 12.2868V11.3253ZM14.0237 11.7109C14.0237 11.8173 13.9384 11.9036 13.8332 11.9036C13.728 11.9036 13.6427 11.8173 13.6427 11.7109C13.6427 11.6044 13.728 11.5181 13.8332 11.5181C13.9384 11.5181 14.0237 11.6044 14.0237 11.7109ZM13.8332 12.6747C13.9384 12.6747 14.0237 12.5884 14.0237 12.4819C14.0237 12.3755 13.9384 12.2892 13.8332 12.2892C13.728 12.2892 13.6427 12.3755 13.6427 12.4819C13.6427 12.5884 13.728 12.6747 13.8332 12.6747ZM14.5951 12.4819C14.5951 12.5884 14.5098 12.6747 14.4047 12.6747C14.2995 12.6747 14.2142 12.5884 14.2142 12.4819C14.2142 12.3755 14.2995 12.2892 14.4047 12.2892C14.5098 12.2892 14.5951 12.3755 14.5951 12.4819ZM14.1189 12.2892C14.2241 12.2892 14.3094 12.2029 14.3094 12.0964C14.3094 11.9899 14.2241 11.9036 14.1189 11.9036C14.0137 11.9036 13.9285 11.9899 13.9285 12.0964C13.9285 12.2029 14.0137 12.2892 14.1189 12.2892ZM14.5951 11.7109C14.5951 11.8173 14.5098 11.9036 14.4047 11.9036C14.2995 11.9036 14.2142 11.8173 14.2142 11.7109C14.2142 11.6044 14.2995 11.5181 14.4047 11.5181C14.5098 11.5181 14.5951 11.6044 14.5951 11.7109Z" fill="#013399"/>
<path fill-rule="evenodd" clip-rule="evenodd" d="M11.3441 11.3253H10.0238V12.2868C10.0238 12.2868 10.1218 12.7833 10.684 12.7833C11.2462 12.7833 11.3441 12.2868 11.3441 12.2868V11.3253ZM10.5952 11.7109C10.5952 11.8173 10.51 11.9036 10.4048 11.9036C10.2996 11.9036 10.2143 11.8173 10.2143 11.7109C10.2143 11.6044 10.2996 11.5181 10.4048 11.5181C10.51 11.5181 10.5952 11.6044 10.5952 11.7109ZM10.4048 12.6747C10.51 12.6747 10.5952 12.5884 10.5952 12.4819C10.5952 12.3755 10.51 12.2892 10.4048 12.2892C10.2996 12.2892 10.2143 12.3755 10.2143 12.4819C10.2143 12.5884 10.2996 12.6747 10.4048 12.6747ZM11.1667 12.4819C11.1667 12.5884 11.0814 12.6747 10.9762 12.6747C10.871 12.6747 10.7857 12.5884 10.7857 12.4819C10.7857 12.3755 10.871 12.2892 10.9762 12.2892C11.0814 12.2892 11.1667 12.3755 11.1667 12.4819ZM10.6905 12.2892C10.7957 12.2892 10.8809 12.2029 10.8809 12.0964C10.8809 11.9899 10.7957 11.9036 10.6905 11.9036C10.5853 11.9036 10.5 11.9899 10.5 12.0964C10.5 12.2029 10.5853 12.2892 10.6905 12.2892ZM11.1667 11.7109C11.1667 11.8173 11.0814 11.9036 10.9762 11.9036C10.871 11.9036 10.7857 11.8173 10.7857 11.7109C10.7857 11.6044 10.871 11.5181 10.9762 11.5181C11.0814 11.5181 11.1667 11.6044 11.1667 11.7109Z" fill="#013399"/>
<path fill-rule="evenodd" clip-rule="evenodd" d="M13.0584 13.4458H11.738V14.4073C11.738 14.4073 11.836 14.9038 12.3982 14.9038C12.9604 14.9038 13.0584 14.4073 13.0584 14.4073V13.4458ZM12.3095 13.8313C12.3095 13.9378 12.2242 14.0241 12.119 14.0241C12.0138 14.0241 11.9285 13.9378 11.9285 13.8313C11.9285 13.7249 12.0138 13.6386 12.119 13.6386C12.2242 13.6386 12.3095 13.7249 12.3095 13.8313ZM12.119 14.7952C12.2242 14.7952 12.3095 14.7089 12.3095 14.6024C12.3095 14.496 12.2242 14.4097 12.119 14.4097C12.0138 14.4097 11.9285 14.496 11.9285 14.6024C11.9285 14.7089 12.0138 14.7952 12.119 14.7952ZM12.8809 14.6024C12.8809 14.7089 12.7956 14.7952 12.6904 14.7952C12.5852 14.7952 12.4999 14.7089 12.4999 14.6024C12.4999 14.496 12.5852 14.4097 12.6904 14.4097C12.7956 14.4097 12.8809 14.496 12.8809 14.6024ZM12.4047 14.4097C12.5099 14.4097 12.5952 14.3233 12.5952 14.2169C12.5952 14.1104 12.5099 14.0241 12.4047 14.0241C12.2995 14.0241 12.2142 14.1104 12.2142 14.2169C12.2142 14.3233 12.2995 14.4097 12.4047 14.4097ZM12.8809 13.8313C12.8809 13.9378 12.7956 14.0241 12.6904 14.0241C12.5852 14.0241 12.4999 13.9378 12.4999 13.8313C12.4999 13.7249 12.5852 13.6386 12.6904 13.6386C12.7956 13.6386 12.8809 13.7249 12.8809 13.8313Z" fill="#013399"/>
</g>
<defs>
<clipPath id="clip0_90_1307">
<rect width="32" height="24" fill="white" transform="translate(0.5)"/>
</clipPath>
</defs>
</svg>
