<svg width="33" height="24" viewBox="0 0 33 24" fill="none" xmlns="http://www.w3.org/2000/svg">
<g clip-path="url(#clip0_90_295)">
<rect width="32" height="24" transform="translate(0.5)" fill="white"/>
<path fill-rule="evenodd" clip-rule="evenodd" d="M0.5 0V24H32.5V0H0.5Z" fill="#FFB400"/>
<mask id="mask0_90_295" style="mask-type:luminance" maskUnits="userSpaceOnUse" x="0" y="0" width="33" height="24">
<path fill-rule="evenodd" clip-rule="evenodd" d="M0.5 0V24H32.5V0H0.5Z" fill="white"/>
</mask>
<g mask="url(#mask0_90_295)">
<path fill-rule="evenodd" clip-rule="evenodd" d="M0.5 0V6H32.5V0H0.5Z" fill="#C51918"/>
<path fill-rule="evenodd" clip-rule="evenodd" d="M0.5 18V24H32.5V18H0.5Z" fill="#C51918"/>
<rect x="5.50806" y="10.272" width="1.12" height="5.824" fill="#F1F9FF"/>
<path fill-rule="evenodd" clip-rule="evenodd" d="M7.07606 9.264H5.06006V9.824H5.39606V10.272H6.74006V9.824H7.07606V9.264Z" fill="#C88A02"/>
<path fill-rule="evenodd" clip-rule="evenodd" d="M6.74006 16.432H7.07606V16.992H5.06006V16.432H5.39606V15.984H6.74006V16.432Z" fill="#C88A02"/>
<path fill-rule="evenodd" clip-rule="evenodd" d="M6.06806 9.376C6.31179 9.376 6.33656 9.28422 6.48036 9.14715C6.59201 9.04071 6.85206 8.9087 6.85206 8.76C6.85206 8.41979 6.50105 8.144 6.06806 8.144C5.63507 8.144 5.28406 8.41979 5.28406 8.76C5.28406 8.92567 5.46314 9.03644 5.59854 9.14715C5.7412 9.26379 5.84592 9.376 6.06806 9.376Z" fill="#AD1619"/>
<path fill-rule="evenodd" clip-rule="evenodd" d="M5.06006 16.992H7.07606V17.888C7.07606 17.888 6.82406 17.776 6.57206 17.776C6.32006 17.776 6.06806 17.888 6.06806 17.888C6.06806 17.888 5.81606 17.776 5.56406 17.776C5.31206 17.776 5.06006 17.888 5.06006 17.888V16.992Z" fill="#005BBF"/>
<mask id="mask1_90_295" style="mask-type:luminance" maskUnits="userSpaceOnUse" x="5" y="16" width="3" height="2">
<path fill-rule="evenodd" clip-rule="evenodd" d="M5.06006 16.992H7.07606V17.888C7.07606 17.888 6.82406 17.776 6.57206 17.776C6.32006 17.776 6.06806 17.888 6.06806 17.888C6.06806 17.888 5.81606 17.776 5.56406 17.776C5.31206 17.776 5.06006 17.888 5.06006 17.888V16.992Z" fill="white"/>
</mask>
<g mask="url(#mask1_90_295)">
<path d="M5.04181 17.7119L4.9978 17.6046C5.17938 17.5238 5.36161 17.4833 5.54411 17.4833C5.66202 17.4833 5.72359 17.4997 5.82826 17.5463C5.9202 17.5872 5.96786 17.5999 6.06841 17.5999C6.16896 17.5999 6.21662 17.5872 6.30856 17.5463C6.41323 17.4997 6.4748 17.4833 6.59271 17.4833C6.77521 17.4833 6.95744 17.5238 7.13902 17.6046L7.09501 17.7119C6.92706 17.6372 6.75975 17.5999 6.59271 17.5999C6.49216 17.5999 6.4445 17.6127 6.35256 17.6536C6.24789 17.7002 6.18632 17.7166 6.06841 17.7166C5.9505 17.7166 5.88893 17.7002 5.78426 17.6536C5.69232 17.6127 5.64466 17.5999 5.54411 17.5999C5.37707 17.5999 5.20976 17.6372 5.04181 17.7119Z" fill="white"/>
<path d="M5.04181 17.3759L4.9978 17.2686C5.17938 17.1878 5.36161 17.1473 5.54411 17.1473C5.66202 17.1473 5.72359 17.1637 5.82826 17.2103C5.9202 17.2512 5.96786 17.2639 6.06841 17.2639C6.16896 17.2639 6.21662 17.2512 6.30856 17.2103C6.41323 17.1637 6.4748 17.1473 6.59271 17.1473C6.77521 17.1473 6.95744 17.1878 7.13902 17.2686L7.09501 17.3759C6.92706 17.3012 6.75975 17.2639 6.59271 17.2639C6.49216 17.2639 6.4445 17.2767 6.35256 17.3176C6.24789 17.3642 6.18632 17.3806 6.06841 17.3806C5.9505 17.3806 5.88893 17.3642 5.78426 17.3176C5.69232 17.2767 5.64466 17.2639 5.54411 17.2639C5.37707 17.2639 5.20976 17.3012 5.04181 17.3759Z" fill="white"/>
</g>
<rect x="16.484" y="10.272" width="1.12" height="5.824" fill="#F1F9FF"/>
<path fill-rule="evenodd" clip-rule="evenodd" d="M18.052 9.264H16.036V9.824H16.372V10.272H17.716V9.824H18.052V9.264Z" fill="#C88A02"/>
<path fill-rule="evenodd" clip-rule="evenodd" d="M17.716 16.432H18.052V16.992H16.036V16.432H16.372V15.984H17.716V16.432Z" fill="#C88A02"/>
<path fill-rule="evenodd" clip-rule="evenodd" d="M17.044 9.376C17.2877 9.376 17.3125 9.28422 17.4563 9.14715C17.568 9.04071 17.828 8.9087 17.828 8.76C17.828 8.41979 17.477 8.144 17.044 8.144C16.611 8.144 16.26 8.41979 16.26 8.76C16.26 8.92567 16.4391 9.03644 16.5745 9.14715C16.7171 9.26379 16.8219 9.376 17.044 9.376Z" fill="#AD1619"/>
<path fill-rule="evenodd" clip-rule="evenodd" d="M16.036 16.992H18.052V17.888C18.052 17.888 17.8 17.776 17.548 17.776C17.296 17.776 17.044 17.888 17.044 17.888C17.044 17.888 16.792 17.776 16.54 17.776C16.288 17.776 16.036 17.888 16.036 17.888V16.992Z" fill="#005BBF"/>
<mask id="mask2_90_295" style="mask-type:luminance" maskUnits="userSpaceOnUse" x="16" y="16" width="3" height="2">
<path fill-rule="evenodd" clip-rule="evenodd" d="M16.036 16.992H18.052V17.888C18.052 17.888 17.8 17.776 17.548 17.776C17.296 17.776 17.044 17.888 17.044 17.888C17.044 17.888 16.792 17.776 16.54 17.776C16.288 17.776 16.036 17.888 16.036 17.888V16.992Z" fill="white"/>
</mask>
<g mask="url(#mask2_90_295)">
<path d="M16.0178 17.7119L15.9738 17.6046C16.1553 17.5238 16.3376 17.4833 16.5201 17.4833C16.638 17.4833 16.6995 17.4997 16.8042 17.5463C16.8962 17.5872 16.9438 17.5999 17.0444 17.5999C17.1449 17.5999 17.1926 17.5872 17.2845 17.5463C17.3892 17.4997 17.4508 17.4833 17.5687 17.4833C17.7512 17.4833 17.9334 17.5238 18.115 17.6046L18.071 17.7119C17.903 17.6372 17.7357 17.5999 17.5687 17.5999C17.4681 17.5999 17.4205 17.6127 17.3285 17.6536C17.2238 17.7002 17.1623 17.7166 17.0444 17.7166C16.9265 17.7166 16.8649 17.7002 16.7602 17.6536C16.6683 17.6127 16.6206 17.5999 16.5201 17.5999C16.353 17.5999 16.1857 17.6372 16.0178 17.7119Z" fill="white"/>
<path d="M16.0178 17.3759L15.9738 17.2686C16.1553 17.1878 16.3376 17.1473 16.5201 17.1473C16.638 17.1473 16.6995 17.1637 16.8042 17.2103C16.8962 17.2512 16.9438 17.2639 17.0444 17.2639C17.1449 17.2639 17.1926 17.2512 17.2845 17.2103C17.3892 17.1637 17.4508 17.1473 17.5687 17.1473C17.7512 17.1473 17.9334 17.1878 18.115 17.2686L18.071 17.3759C17.903 17.3012 17.7357 17.2639 17.5687 17.2639C17.4681 17.2639 17.4205 17.2767 17.3285 17.3176C17.2238 17.3642 17.1623 17.3806 17.0444 17.3806C16.9265 17.3806 16.8649 17.3642 16.7602 17.3176C16.6683 17.2767 16.6206 17.2639 16.5201 17.2639C16.353 17.2639 16.1857 17.3012 16.0178 17.3759Z" fill="white"/>
</g>
<path fill-rule="evenodd" clip-rule="evenodd" d="M5.488 15.6799C5.68993 15.4351 5.80285 15.2124 5.80285 14.9759C5.80285 14.8267 5.75846 14.6979 5.6807 14.5927L5.69384 14.5868C5.69263 14.5873 5.91536 14.4902 5.9929 14.453C6.13706 14.3839 6.26405 14.3107 6.38788 14.2207C6.46693 14.1632 6.57285 14.1006 6.73431 14.0138C6.76221 13.9989 6.83783 13.9587 6.88606 13.9331L6.927 13.9114C7.00548 13.8695 7.06391 13.8374 7.1182 13.8059C7.28737 13.7078 7.39917 13.6267 7.48467 13.5183C7.68719 13.2615 7.64514 12.9134 7.36135 12.7201C7.22231 12.6255 7.03468 12.5712 6.75965 12.5284L6.70278 12.5196C6.60883 12.5051 6.4283 12.4772 6.3663 12.4674C6.23468 12.4468 6.11725 12.4275 6.01254 12.4092C6.70111 12.2946 7.68435 12.3367 8.11685 12.56L8.5279 11.7639C7.64656 11.3088 5.63843 11.3553 4.88829 11.8719C4.3381 12.2508 4.41193 12.8236 4.98438 13.0702C5.22358 13.1733 5.53541 13.2416 6.11246 13.3343C6.01576 13.3904 5.93559 13.4417 5.86089 13.496C5.78513 13.5511 5.70397 13.5979 5.60552 13.6451C5.55844 13.6677 5.41905 13.7289 5.35513 13.7569L5.35508 13.757L5.35508 13.757L5.32296 13.7711C4.85668 13.9831 4.63038 14.2764 4.698 14.8059L4.73461 15.0925L4.80027 15.1127L5.488 15.6799ZM4.91162 14.9392L4.9102 14.9434L4.91128 14.9404L4.91162 14.9392ZM17.206 14.9759C17.206 15.2124 17.3189 15.4351 17.5208 15.6799L18.2086 15.1127L18.2742 15.0925L18.3108 14.8059C18.3785 14.2764 18.1522 13.9831 17.6859 13.7711L17.6538 13.757C17.5899 13.7289 17.4504 13.6677 17.4033 13.6451C17.3049 13.5979 17.2237 13.5511 17.148 13.496C17.0733 13.4417 16.9931 13.3904 16.8964 13.3343C17.4734 13.2416 17.7853 13.1733 18.0245 13.0702C18.5969 12.8236 18.6707 12.2508 18.1205 11.8719C17.3704 11.3553 15.3623 11.3088 14.4809 11.7639L14.892 12.56C15.3245 12.3367 16.3077 12.2946 16.9963 12.4092C16.8916 12.4275 16.7742 12.4468 16.6425 12.4674C16.5806 12.4772 16.4001 12.5051 16.3061 12.5196L16.3058 12.5196L16.2492 12.5284C15.9742 12.5712 15.7865 12.6255 15.6475 12.7201C15.3637 12.9134 15.3217 13.2615 15.5242 13.5183C15.6097 13.6267 15.7215 13.7078 15.8906 13.8059C15.9449 13.8374 16.0034 13.8695 16.0818 13.9114L16.1226 13.933C16.1708 13.9586 16.2466 13.9988 16.2745 14.0138C16.436 14.1006 16.5419 14.1632 16.621 14.2207C16.7448 14.3107 16.8718 14.3839 17.0159 14.453C17.0935 14.4902 17.3162 14.5873 17.315 14.5868L17.3281 14.5927C17.2504 14.6979 17.206 14.8267 17.206 14.9759Z" fill="#AD1619"/>
<path d="M6.42341 12.4L6.754 12.4684V12.9611C6.4019 13.2421 5.50806 13.7156 5.50806 13.7156V12.4H6.42341Z" fill="#F1F9FF"/>
<path d="M16.8146 12.4L16.484 12.4684V12.9611C16.8361 13.2421 17.73 13.7156 17.73 13.7156V12.4H16.8146Z" fill="#F1F9FF"/>
<path fill-rule="evenodd" clip-rule="evenodd" d="M15.2761 7.20598V7.04199C14.7001 6.62855 14.0968 6.42183 13.4663 6.42183C12.8619 6.15435 12.2501 6.05052 11.6309 6.11035C11.6311 6.10844 11.6312 6.10746 11.6312 6.10746C10.7002 6.01637 9.76198 6.42183 9.76198 6.42183C8.81627 6.42183 7.95215 7.04199 7.95215 7.04199V7.20598L9.08178 8.3405C9.08178 8.3405 9.39974 9.4325 11.6266 9.17585V9.17862C11.6266 9.17862 13.1009 9.13838 13.2045 9.10392C13.2456 9.09025 13.2883 9.07781 13.3318 9.06509C13.6206 8.98078 13.9503 8.88453 14.1465 8.3405L15.2761 7.20598ZM11.6266 6.16052C11.5944 6.53823 11.4109 8.81517 11.6266 9.16817V6.16052Z" fill="#AD1619"/>
<path fill-rule="evenodd" clip-rule="evenodd" d="M8.81374 8.14957L8.81449 8.14612L8.01978 7.39844L8.09652 7.31686L8.84225 8.01846L8.86133 7.93069C8.98333 7.95722 9.0725 7.96697 9.12448 7.96145V7.80925L9.28978 7.89871C9.37109 7.94271 9.48753 7.95454 9.6409 7.92959C9.75354 7.91126 9.82955 7.78044 9.8544 7.50167L9.90457 6.93891L10.0729 7.47826C10.149 7.72231 10.2652 7.8299 10.4306 7.8299C10.5922 7.8299 10.6571 7.77068 10.6643 7.6214L10.6846 7.19802L10.8761 7.57618C10.945 7.71241 11.0402 7.77423 11.1754 7.77423C11.3689 7.77423 11.4981 7.61295 11.4981 7.3599H11.5017H11.7221H11.7257C11.7257 7.61295 11.855 7.77423 12.0484 7.77423C12.1837 7.77423 12.2788 7.71241 12.3478 7.57618L12.5392 7.19802L12.5596 7.6214C12.5667 7.77068 12.6317 7.8299 12.7932 7.8299C12.9586 7.8299 13.0748 7.72231 13.1509 7.47826L13.3192 6.93891L13.3694 7.50167C13.3943 7.78044 13.4703 7.91126 13.5829 7.92959C13.7363 7.95454 13.8527 7.94271 13.934 7.89871L14.0993 7.80925V7.96145C14.1513 7.96697 14.2405 7.95722 14.3625 7.93069L14.3979 8.09355L15.2234 7.31686L15.3002 7.39844L14.2729 8.36495C14.123 8.64098 14.0475 8.82317 14.0475 8.89885C14.0475 9.01431 13.7471 9.08284 13.1609 9.15323C12.7016 9.20837 12.1596 9.24539 11.7162 9.25092V9.25164L11.66 9.25145L11.6038 9.25164V9.25092C11.1604 9.24539 10.6184 9.20837 10.1591 9.15323C9.57282 9.08284 9.27244 9.01431 9.27244 8.89885C9.27244 8.88453 9.26973 8.8664 9.26434 8.84455C9.20522 8.76926 9.16366 8.6461 9.136 8.53501C9.11005 8.48305 9.0804 8.42632 9.04708 8.36495L8.81948 8.15082L8.81374 8.14957ZM14.3192 8.16761C14.1358 8.20008 14.0033 8.1968 13.933 8.13958C13.8231 8.17156 13.6942 8.17463 13.5469 8.15068C13.3897 8.12509 13.2802 8.0205 13.2143 7.84701C13.1283 7.95659 13.0195 8.02424 12.8893 8.04611C13.606 8.14776 14.108 8.29063 14.108 8.29063C14.108 8.29063 14.0957 8.39678 14.0656 8.52158C14.0974 8.45625 14.1352 8.38365 14.1788 8.30353L14.1896 8.28953L14.3192 8.16761ZM12.5511 8.00354C12.4887 7.97257 12.4389 7.92766 12.403 7.86978C12.3495 7.91697 12.2888 7.95148 12.2213 7.97278C12.3339 7.9814 12.4441 7.99181 12.5511 8.00354ZM11.8259 7.95099C11.7386 7.91067 11.6661 7.84611 11.6119 7.76338C11.5581 7.84552 11.4862 7.90976 11.3998 7.95013C11.451 7.9486 11.5025 7.94753 11.5542 7.94695V7.94644L11.5991 7.94657L11.644 7.94644V7.94695C11.705 7.94763 11.7657 7.949 11.8259 7.95099ZM9.12221 8.28186L9.01779 8.18362C9.14314 8.19605 9.23592 8.18425 9.29079 8.13958C9.40072 8.17156 9.52966 8.17463 9.67687 8.15068C9.83411 8.12509 9.94361 8.0205 10.0095 7.84701C10.093 7.95342 10.198 8.02029 10.3233 8.0441C9.70534 8.13092 9.24429 8.24904 9.12221 8.28186ZM10.9977 7.97122C10.8892 7.97928 10.783 7.98903 10.6797 8.00003C10.7388 7.96922 10.7862 7.92551 10.8209 7.86978C10.873 7.91583 10.9321 7.94982 10.9977 7.97122ZM13.7531 8.90104C13.8315 8.93776 13.8944 8.90113 13.9442 8.83082C13.9399 8.85024 13.9372 8.86779 13.9361 8.88352C13.9295 8.88782 13.9194 8.893 13.9062 8.89855C13.8693 8.91406 13.813 8.93059 13.7397 8.94731C13.5956 8.98017 13.3906 9.01285 13.1475 9.04203C12.6729 9.09901 12.1086 9.13651 11.66 9.13945C11.2113 9.13651 10.647 9.09901 10.1724 9.04203C9.9294 9.01285 9.72434 8.98017 9.58027 8.94731C9.51884 8.93329 9.46931 8.91942 9.43317 8.90616C9.43714 8.90465 9.44116 8.90294 9.44523 8.90104C9.68989 8.78656 11.3078 8.67912 11.5991 8.66058C11.8905 8.67912 13.5084 8.78656 13.7531 8.90104ZM14.061 8.88114L14.0601 8.88219L14.0609 8.88106L14.0616 8.88053L14.061 8.88114Z" fill="#C88A02"/>
<path fill-rule="evenodd" clip-rule="evenodd" d="M11.6124 5.34707C11.7979 5.34707 11.9484 5.19664 11.9484 5.01107C11.9484 4.8255 11.7979 4.67507 11.6124 4.67507C11.4268 4.67507 11.2764 4.8255 11.2764 5.01107C11.2764 5.19664 11.4268 5.34707 11.6124 5.34707Z" fill="#005BBF"/>
<path fill-rule="evenodd" clip-rule="evenodd" d="M11.3938 6.9968C11.4009 7.03368 11.4121 7.06801 11.4263 7.09861C11.3829 7.08203 11.3314 7.07242 11.2761 7.07242C11.1215 7.07242 10.9961 7.14764 10.9961 7.24042C10.9961 7.33321 11.1215 7.40842 11.2761 7.40842C11.4307 7.40842 11.5561 7.33321 11.5561 7.24042C11.5561 7.33321 11.6815 7.40842 11.8361 7.40842C11.9907 7.40842 12.1161 7.33321 12.1161 7.24042C12.1161 7.14764 11.9907 7.07242 11.8361 7.07242C11.7972 7.07242 11.7601 7.07719 11.7264 7.0858C11.7345 7.03987 11.7342 6.98721 11.7236 6.93269C11.6941 6.78089 11.5963 6.67219 11.5052 6.68989C11.4142 6.70759 11.3642 6.845 11.3938 6.9968ZM11.5561 7.24042L11.556 7.2353L11.5562 7.23538L11.5561 7.24042ZM9.74627 7.21061C9.73212 7.18001 9.72092 7.14568 9.71375 7.1088C9.68425 6.957 9.73416 6.81959 9.82524 6.80189C9.91632 6.78419 10.0141 6.89289 10.0436 7.04469C10.0542 7.09921 10.0545 7.15187 10.0464 7.1978C10.0801 7.18919 10.1172 7.18442 10.1561 7.18442C10.3107 7.18442 10.4361 7.25964 10.4361 7.35242C10.4361 7.44521 10.3107 7.52042 10.1561 7.52042C10.0015 7.52042 9.87609 7.44521 9.87609 7.35242L9.87622 7.34738L9.87597 7.3473L9.87609 7.35242C9.87609 7.44521 9.75073 7.52042 9.59609 7.52042C9.44145 7.52042 9.31609 7.44521 9.31609 7.35242C9.31609 7.25964 9.44145 7.18442 9.59609 7.18442C9.65135 7.18442 9.70287 7.19403 9.74627 7.21061ZM13.254 7.31298C13.2411 7.40487 13.1065 7.4619 12.9534 7.44038C12.8002 7.41886 12.6866 7.32693 12.6995 7.23505C12.7124 7.14317 12.847 7.08613 13.0001 7.10765C13.0549 7.11534 13.1045 7.13202 13.1452 7.15448C13.1354 7.12221 13.1291 7.08665 13.1272 7.04914C13.1191 6.89471 13.1876 6.76559 13.2803 6.76073C13.3729 6.75587 13.4546 6.87713 13.4627 7.03155C13.4656 7.08702 13.4586 7.13922 13.4442 7.18357C13.4788 7.17973 13.5161 7.18017 13.5547 7.18559C13.7078 7.20711 13.8215 7.29904 13.8086 7.39092C13.7957 7.4828 13.6611 7.53984 13.5079 7.51832C13.3548 7.4968 13.2411 7.40487 13.254 7.31298ZM13.254 7.31298L13.2546 7.30789L13.2548 7.30801L13.254 7.31298ZM14.3204 7.75724C14.457 7.82984 14.603 7.82228 14.6465 7.74036L14.6488 7.73577C14.6623 7.75001 14.6782 7.76037 14.6964 7.76592C14.7851 7.79305 14.8937 7.69516 14.9389 7.54727C14.9841 7.39939 14.9488 7.25752 14.8601 7.23039C14.7714 7.20326 14.6628 7.30115 14.6176 7.44904C14.6066 7.48496 14.6004 7.52053 14.5985 7.55419C14.568 7.51918 14.527 7.48651 14.4782 7.46057C14.3416 7.38797 14.1956 7.39553 14.1521 7.47745C14.1085 7.55938 14.1839 7.68464 14.3204 7.75724ZM8.82491 7.79155C8.68837 7.86415 8.54237 7.85659 8.49882 7.77467C8.49801 7.77315 8.49725 7.77162 8.49652 7.77008C8.48307 7.78431 8.46715 7.79468 8.44898 7.80023C8.36025 7.82736 8.25167 7.72946 8.20646 7.58158C8.16125 7.4337 8.19653 7.29183 8.28526 7.2647C8.37399 7.23757 8.48257 7.33546 8.52778 7.48334C8.53876 7.51927 8.545 7.55484 8.54687 7.5885C8.5774 7.55349 8.61838 7.52082 8.66717 7.49488C8.80371 7.42228 8.94971 7.42984 8.99327 7.51176C9.03683 7.59368 8.96145 7.71895 8.82491 7.79155Z" fill="#C88A02"/>
<path fill-rule="evenodd" clip-rule="evenodd" d="M11.4869 4.0766H11.7202V4.224H11.8727V4.45733H11.7202V4.924H11.8727V5.15733H11.332V4.924H11.4869V4.45733H11.332V4.224H11.4869V4.0766Z" fill="#C88A02"/>
<rect x="11.4441" y="5.344" width="0.448" height="1.456" fill="#C88A02"/>
<path d="M9.64067 5.58784L9.63872 5.69982C8.64562 5.68248 8.07596 5.82741 7.93136 6.11626C7.78186 6.41489 7.80966 6.77791 8.01914 7.20913L7.9184 7.25807C7.69489 6.79797 7.66437 6.39938 7.83121 6.06612C8.00294 5.72308 8.60556 5.56977 9.64067 5.58784Z" fill="white"/>
<path d="M9.83286 6.58098L9.77544 6.67714C9.55917 6.54801 9.45093 6.32763 9.45093 6.02393C9.45093 5.58745 9.67577 5.3315 10.1731 5.15634C10.4905 5.04455 10.9242 5.09038 11.4752 5.29016L11.437 5.39546C10.908 5.20367 10.4987 5.16041 10.2103 5.26198C9.75414 5.42264 9.56293 5.64031 9.56293 6.02393C9.56293 6.29045 9.65283 6.47349 9.83286 6.58098Z" fill="white"/>
<path d="M8.16018 7.03738L7.94884 7.11161C7.72956 6.48726 7.79218 6.06325 8.16687 5.88034C8.49704 5.71918 8.97822 5.65359 9.61282 5.6793L9.60375 5.90312C9.00291 5.87877 8.55591 5.9397 8.26513 6.08164C8.01889 6.20185 7.97384 6.50683 8.16018 7.03738Z" fill="#C88A02"/>
<path d="M10.6294 5.43869C10.1173 5.43869 9.90696 5.56343 9.78681 5.93171C9.71024 6.16642 9.7845 6.36673 10.0253 6.55372L9.8879 6.73064C9.57616 6.48856 9.46625 6.19207 9.57386 5.86224C9.72698 5.39289 10.0274 5.21469 10.6294 5.21469C11.024 5.21469 11.3313 5.31835 11.5453 5.52931L11.5787 5.56221V6.64218H11.3547V5.65795C11.1876 5.51278 10.9475 5.43869 10.6294 5.43869Z" fill="#C88A02"/>
<path d="M13.5491 5.69984L13.5511 5.81182C14.5442 5.79448 15.1139 5.93941 15.2585 6.22826C15.408 6.52689 15.3802 6.88991 15.1707 7.32113L15.2714 7.37007C15.4949 6.90997 15.5254 6.51138 15.3586 6.17812C15.1869 5.83508 14.5843 5.68177 13.5491 5.69984Z" fill="white"/>
<path d="M13.1984 6.60427L13.2558 6.70043C13.4721 6.5713 13.5803 6.35092 13.5803 6.04722C13.5803 5.61074 13.3555 5.35479 12.8581 5.17963C12.5407 5.06784 12.1071 5.11367 11.5561 5.31345L11.5943 5.41874C12.1232 5.22696 12.5325 5.18369 12.8209 5.28527C13.2771 5.44593 13.4683 5.6636 13.4683 6.04722C13.4683 6.31373 13.3784 6.49678 13.1984 6.60427Z" fill="white"/>
<path d="M15.0993 7.14938L15.3107 7.22361C15.53 6.59926 15.4673 6.17525 15.0926 5.99235C14.7625 5.83118 14.2813 5.76559 13.6467 5.7913L13.6558 6.01512C14.2566 5.99077 14.7036 6.0517 14.9944 6.19364C15.2406 6.31385 15.2857 6.61883 15.0993 7.14938Z" fill="#C88A02"/>
<path d="M12.6174 5.456C13.1296 5.456 13.3399 5.58073 13.46 5.94902C13.5366 6.18372 13.4623 6.38404 13.2215 6.57102L13.3589 6.74794C13.6707 6.50586 13.7806 6.20938 13.673 5.87955C13.5198 5.4102 13.2194 5.232 12.6174 5.232C12.2229 5.232 11.9155 5.33566 11.7015 5.54662L11.6681 5.57952V6.65948H11.8921V5.67526C12.0593 5.53008 12.2993 5.456 12.6174 5.456Z" fill="#C88A02"/>
<path opacity="0.3" fill-rule="evenodd" clip-rule="evenodd" d="M7.97205 9.264H15.252V15.8048C15.252 15.8048 14.7113 18 11.612 18C8.51282 18 7.97205 15.747 7.97205 15.747V9.264Z" fill="#E1E5E8"/>
<mask id="mask3_90_295" style="mask-type:luminance" maskUnits="userSpaceOnUse" x="7" y="9" width="9" height="9">
<path fill-rule="evenodd" clip-rule="evenodd" d="M7.97205 9.264H15.252V15.8048C15.252 15.8048 14.7113 18 11.612 18C8.51282 18 7.97205 15.747 7.97205 15.747V9.264Z" fill="white"/>
</mask>
<g mask="url(#mask3_90_295)">
<rect x="7.97205" y="13.296" width="3.696" height="4.368" fill="#FFC034"/>
<rect x="8.42004" y="13.52" width="0.448" height="4.144" fill="#AD1619"/>
<rect x="9.98804" y="13.52" width="0.448" height="4.144" fill="#AD1619"/>
<rect x="9.2041" y="13.52" width="0.448" height="4.144" fill="#AD1619"/>
<rect x="10.7721" y="13.52" width="0.448" height="4.144" fill="#AD1619"/>
<rect x="7.97205" y="9.152" width="3.696" height="4.256" fill="#AD1619"/>
<rect x="11.556" y="13.184" width="3.696" height="4.256" fill="#AD1619"/>
<rect x="11.556" y="9.264" width="3.92" height="4.144" fill="#F1F9FF"/>
<path fill-rule="evenodd" clip-rule="evenodd" d="M9.5401 9.6H9.8761V10.5292H10.1001V10.0646H10.4361V10.5292H10.7721V11.1099H10.4361V12.1553H10.7721V12.736H8.7561V12.1553H9.0921V11.1099H8.7561V10.5292H8.9801V10.0646H9.3161V10.5292H9.5401V9.6Z" fill="#C88A02"/>
<path d="M13.4789 9.79502L13.7082 9.54949L14.1898 9.99931L13.9604 10.2448L13.4789 9.79502Z" fill="#C88A02"/>
<path fill-rule="evenodd" clip-rule="evenodd" d="M14.8601 16.1401V13.688H12.0601V16.1195L12.0645 16.1385C12.2062 16.7424 12.6889 17.048 13.4601 17.048C14.2304 17.048 14.7131 16.7503 14.8554 16.1595L14.8601 16.1401ZM13.4601 16.712C12.8414 16.712 12.5035 16.5036 12.3961 16.0799V14.024H14.5241V16.0994C14.4169 16.5092 14.079 16.712 13.4601 16.712Z" fill="#FFC034"/>
<path fill-rule="evenodd" clip-rule="evenodd" d="M13.5756 13.8929H13.3423V15.0046L12.4225 14.0042L12.2576 14.1558L13.0894 15.0605H12.3357V15.3965H12.9147H13.1077L12.2576 16.3212L12.4225 16.4728L13.3423 15.4724V16.7718H13.5756V15.5893L14.3879 16.4728L14.5528 16.3212L13.7026 15.3965H14.6516V15.0605H13.721L14.5528 14.1558L14.3879 14.0042L13.5756 14.8877V13.8929Z" fill="#FFC034"/>
<path fill-rule="evenodd" clip-rule="evenodd" d="M13.9828 17.4427C13.9828 17.4427 11.6106 17.6292 11.6106 16.0992C11.6106 16.0992 11.588 17.4427 9.11096 17.4427V18.6505H13.9828V17.4427Z" fill="#F1F9FF"/>
<path fill-rule="evenodd" clip-rule="evenodd" d="M11.6121 14.192C12.076 14.192 12.4521 13.7908 12.4521 13.296C12.4521 12.8012 12.076 12.4 11.6121 12.4C11.1482 12.4 10.7721 12.8012 10.7721 13.296C10.7721 13.7908 11.1482 14.192 11.6121 14.192Z" fill="#005BBF" stroke="#AD1619" stroke-width="1.16667"/>
</g>
</g>
</g>
<defs>
<clipPath id="clip0_90_295">
<rect width="32" height="24" fill="white" transform="translate(0.5)"/>
</clipPath>
</defs>
</svg>
