<svg width="33" height="24" viewBox="0 0 33 24" fill="none" xmlns="http://www.w3.org/2000/svg">
<g clip-path="url(#clip0_90_923)">
<rect width="32" height="24" transform="translate(0.5)" fill="white"/>
<path fill-rule="evenodd" clip-rule="evenodd" d="M0.5 0V24H32.5V0H0.5Z" fill="#2E42A5"/>
<mask id="mask0_90_923" style="mask-type:luminance" maskUnits="userSpaceOnUse" x="0" y="0" width="33" height="24">
<path fill-rule="evenodd" clip-rule="evenodd" d="M0.5 0V24H32.5V0H0.5Z" fill="white"/>
</mask>
<g mask="url(#mask0_90_923)">
<path fill-rule="evenodd" clip-rule="evenodd" d="M0.5 0V8H32.5V0H0.5Z" fill="#FECA00"/>
<path fill-rule="evenodd" clip-rule="evenodd" d="M0.5 16V24H32.5V16H0.5Z" fill="#E31D1C"/>
<path fill-rule="evenodd" clip-rule="evenodd" d="M13.2368 11.8594L14.2195 11.302L15.3221 11.8594L14.9262 10.7264L15.7497 9.89382H14.7016L14.218 8.82162L13.8057 9.89382H12.5762L13.5007 10.7115H12.4638L11.9803 9.63933L11.5679 10.7115H10.3384L11.2797 11.5441L11.0998 12.2704H10.3152L9.83171 11.1983L9.41934 12.2704H8.18983L9.13117 13.103L8.95707 13.8059H8.61358L8.13004 12.7337L7.71767 13.8059H6.48816L7.4295 14.6385L7.14884 15.7715L8.13152 15.214L9.23414 15.7715L8.83817 14.6385L9.6617 13.8059H9.60879L9.83319 13.6786L10.9358 14.2361L10.5398 13.103L11.0118 12.6259L10.9991 12.6771L11.9818 12.1197L13.0844 12.6771L12.6884 11.5441L13.5067 10.7168L13.5175 10.7264L13.2368 11.8594Z" fill="#F7FCFF"/>
<path fill-rule="evenodd" clip-rule="evenodd" d="M19.723 11.8156L18.7403 11.2581L17.6377 11.8156L18.0337 10.6826L17.2101 9.84999H18.2583L18.7418 8.7778L19.1542 9.84999H20.3837L19.4592 10.6677H20.5009L20.9844 9.5955L21.3968 10.6677H22.6263L21.685 11.5003L21.8649 12.2266H22.6495L23.133 11.1544L23.5454 12.2266H24.7749L23.8336 13.0592L24.0077 13.7621H24.3511L24.8347 12.6899L25.247 13.7621H26.4766L25.5352 14.5947L25.8159 15.7277L24.8332 15.1702L23.7306 15.7277L24.1266 14.5947L23.303 13.7621H23.3559L23.1315 13.6348L22.0289 14.1922L22.4249 13.0592L21.953 12.5821L21.9656 12.6333L20.983 12.0758L19.8803 12.6333L20.2763 11.5003L19.4558 10.6707L19.4423 10.6826L19.723 11.8156Z" fill="#F7FCFF"/>
<path fill-rule="evenodd" clip-rule="evenodd" d="M16.3329 10.5347L15.3503 11.0922L15.6309 9.9592L14.6896 9.12661H15.9191L16.3315 8.05441L16.815 9.12661H17.8631L17.0396 9.9592L17.4356 11.0922L16.3329 10.5347Z" fill="#F7FCFF"/>
</g>
</g>
<defs>
<clipPath id="clip0_90_923">
<rect width="32" height="24" fill="white" transform="translate(0.5)"/>
</clipPath>
</defs>
</svg>
