<svg width="39" height="26" viewBox="0 0 39 26" fill="none" xmlns="http://www.w3.org/2000/svg">
<path d="M36.0164 25.0892L37.5533 24.5685C38.1501 24.3663 38.4159 23.6737 38.0991 23.129C34.0482 16.165 26.3776 3.66171 25.4537 3.11221C23.5206 1.96239 22.5522 5.68485 21.5522 7.18485C20.5522 8.68485 21.5344 10.8545 22.7172 12.1663C23.4659 12.9966 26.1591 13.1122 27.1591 14.1122C28.8732 15.8263 29.6512 19.112 27.4126 19.112H15.1158C11.6158 19.112 6.48136 19.1856 5.98136 18.6858C5.48136 18.1861 6.2305 17.8439 7.05683 16.6962C7.70211 15.8 9.49457 16.1226 11.7424 16.3999C13.7424 16.7333 18.0204 17.4272 18.8204 17.0272C19.8204 16.5272 19.3878 16.3535 15.8878 13.8535C12.3878 11.3535 13.1362 11.2469 13.4538 9.11221C13.6802 7.59001 12.3567 6.94616 11.1026 6.64631C11.0041 6.62276 10.9094 6.58727 10.8223 6.53557C9.60993 5.8157 7.27597 4.08816 6.50488 2.54596C5.9315 1.39921 5.02656 1.04974 4.37578 1.00513C3.99539 0.979055 3.72693 1.30409 3.67564 1.68191L1.3431 18.8654C1.32112 19.0273 1.33915 19.1921 1.39559 19.3455L2.32128 21.8597C2.452 22.2147 2.37115 22.6131 2.11239 22.8891L0.78955 24.3001C0.490166 24.6195 0.716587 25.1421 1.15431 25.1421H35.6955C35.8046 25.1421 35.913 25.1242 36.0164 25.0892Z" stroke="#FF1800"/>
</svg>
