<svg width="79" height="30" viewBox="0 0 79 30" fill="none" xmlns="http://www.w3.org/2000/svg">
<path fill-rule="evenodd" clip-rule="evenodd" d="M66.4486 29.6082H66.8204V27.3361L67.4711 29.6082H67.8119L68.4626 27.3361V29.6082H68.8344V26.6702H68.2767L67.657 28.9815L67.0063 26.6702H66.4486V29.6082ZM64.2796 27.1011H65.0233V29.6082H65.4261V27.1011H66.1697V26.6702H64.2796V27.1011ZM55.1923 29.6095L78.3134 0.386921H67.128L44.0068 29.6095H55.1923ZM57.058 10.6113H34.5633C27.7157 10.6113 26.5073 11.0814 23.5637 14.8029C20.8061 18.2894 11.8277 29.5942 11.8277 29.5942H21.5878L28.4283 20.9532C29.9466 19.0337 30.7522 18.8378 33.9436 18.8378H50.5823L57.058 10.6113ZM23.2539 13.1184C21.2399 15.5472 12.5017 26.675 10.1158 29.6131H-2.42233e-07C-2.42233e-07 29.6131 12.3473 13.3143 17.026 7.47738C21.8286 1.71883 24.2144 0.386921 33.045 0.386921H65.145L58.2045 9.16186H33.6957C27.4988 9.16186 26.1045 9.71029 23.2539 13.1184Z" fill="#E10600"/>
</svg>
